<?xml version="1.0" standalone="no"?>
<!DOCTYPE svg PUBLIC "-//W3C//DTD SVG 20010904//EN"
 "http://www.w3.org/TR/2001/REC-SVG-20010904/DTD/svg10.dtd">
<svg version="1.0" xmlns="http://www.w3.org/2000/svg"
 width="4208.000000pt" height="4208.000000pt" viewBox="0 0 4208.000000 4208.000000"
 preserveAspectRatio="xMidYMid meet">
<metadata>
Created by potrace 1.11, written by Peter Selinger 2001-2013
</metadata>
<g transform="translate(0.000000,4208.000000) scale(0.100000,-0.100000)"
fill="#000000" stroke="none">
<path d="M22695 37280 c-3 -5 -16 -10 -28 -10 -89 0 -165 -7 -183 -17 -12 -7
-24 -10 -27 -6 -4 3 -13 0 -22 -7 -8 -7 -21 -10 -29 -7 -16 6 -40 -16 -29 -26
3 -4 0 -8 -8 -8 -44 -4 -61 -14 -124 -74 -30 -29 -55 -60 -55 -69 0 -9 3 -15
8 -14 4 1 20 -4 35 -10 16 -7 35 -12 43 -12 8 0 14 -4 14 -9 0 -5 24 -17 53
-27 28 -9 57 -21 63 -26 7 -5 16 -8 20 -7 5 1 18 -1 29 -5 59 -23 107 -35 165
-43 19 -3 40 -9 45 -13 8 -7 109 -40 118 -39 1 0 13 -2 27 -5 14 -3 48 -7 75
-10 28 -3 84 -12 125 -20 41 -7 105 -12 142 -11 40 2 77 -2 92 -10 13 -7 27
-11 30 -8 4 4 84 8 376 16 69 2 73 15 28 99 -40 77 -164 203 -207 212 -9 2
-23 6 -31 9 -8 3 -33 11 -55 18 -22 7 -50 18 -62 26 -12 8 -27 12 -33 8 -5 -3
-10 -1 -10 6 0 6 -8 9 -19 6 -11 -3 -30 2 -42 11 -12 8 -31 16 -43 17 -36 4
-37 5 -31 14 6 10 -17 8 -46 -3 -8 -4 -25 2 -39 14 -24 21 -40 26 -40 12 0 -9
-47 -8 -81 3 -33 11 -75 15 -141 16 -32 0 -60 5 -63 10 -8 12 -32 12 -40 -1z"/>
<path d="M22159 36994 c-6 -7 -8 -18 -4 -24 4 -6 1 -17 -5 -25 -7 -8 -10 -21
-7 -29 3 -8 0 -20 -8 -26 -8 -6 -12 -17 -9 -24 3 -7 -6 -20 -20 -30 -16 -10
-23 -22 -20 -31 4 -8 1 -22 -5 -29 -9 -11 -9 -16 0 -22 8 -5 5 -12 -11 -24
-14 -11 -24 -31 -27 -56 -2 -21 -11 -46 -19 -55 -8 -9 -12 -23 -9 -31 4 -9 -1
-18 -10 -22 -12 -4 -15 -13 -11 -31 5 -18 2 -25 -8 -25 -18 0 -25 -18 -21 -53
2 -18 -2 -30 -11 -34 -8 -3 -14 -11 -14 -18 0 -7 -7 -18 -15 -25 -8 -7 -12
-16 -9 -22 3 -5 0 -15 -6 -23 -10 -12 -10 -18 0 -30 10 -12 9 -15 -5 -15 -14
0 -16 -6 -12 -30 5 -24 4 -28 -10 -23 -12 5 -15 2 -10 -10 3 -8 -1 -21 -8 -27
-11 -9 -12 -17 -4 -31 6 -13 6 -19 -1 -19 -5 0 -10 -10 -10 -23 0 -13 -4 -27
-10 -33 -5 -5 -11 -22 -12 -36 -1 -15 -6 -24 -10 -22 -4 3 -8 -2 -8 -10 0 -9
-5 -16 -11 -16 -7 0 -9 -10 -5 -26 6 -21 3 -27 -14 -31 -13 -3 -19 -12 -17
-22 2 -9 -5 -31 -16 -50 -11 -18 -21 -43 -23 -55 -1 -11 -8 -34 -15 -51 -6
-16 -14 -39 -16 -49 -2 -11 -9 -27 -16 -35 -7 -9 -13 -27 -12 -41 0 -14 -7
-31 -17 -38 -10 -7 -18 -22 -18 -33 0 -11 -7 -31 -16 -44 -9 -14 -14 -32 -10
-40 3 -8 1 -15 -4 -15 -6 0 -10 -7 -10 -16 0 -8 -7 -22 -15 -31 -11 -10 -14
-25 -9 -48 4 -24 2 -35 -9 -41 -26 -15 -67 -106 -56 -125 12 -24 11 -29 -6
-29 -11 0 -15 -9 -13 -29 1 -16 -4 -36 -11 -45 -7 -9 -10 -16 -5 -16 4 0 3 -5
-4 -12 -7 -7 -12 -23 -12 -36 0 -15 -4 -21 -12 -16 -7 5 -9 0 -6 -14 4 -13 -1
-27 -13 -38 -13 -11 -17 -24 -13 -40 5 -18 2 -24 -11 -24 -12 0 -16 -6 -12
-19 3 -12 -1 -22 -11 -26 -8 -3 -12 -8 -8 -12 3 -3 -1 -17 -10 -31 -8 -13 -13
-30 -10 -38 3 -8 -1 -17 -9 -20 -8 -4 -15 -17 -15 -29 0 -13 -8 -31 -17 -41
-19 -18 -19 -20 -1 -42 9 -10 6 -14 -11 -19 -14 -3 -20 -11 -17 -20 3 -7 2
-21 -4 -31 -26 -49 -40 -88 -40 -112 0 -17 -7 -30 -16 -34 -12 -5 -15 -14 -11
-34 6 -29 -3 -54 -19 -53 -5 0 -8 -11 -7 -25 1 -13 -3 -24 -8 -24 -12 0 -31
-47 -31 -77 0 -13 -4 -20 -8 -18 -13 8 -18 -18 -8 -37 6 -13 5 -16 -5 -12 -8
3 -17 -2 -20 -10 -4 -9 -1 -16 6 -16 7 -1 5 -6 -5 -14 -10 -7 -18 -21 -18 -30
0 -9 -6 -19 -13 -22 -7 -2 -12 -17 -12 -32 1 -15 -1 -31 -4 -37 -3 -5 -7 -21
-7 -35 -3 -39 -3 -40 -18 -40 -14 0 -29 -28 -25 -46 1 -5 0 -11 -1 -14 -1 -3
-3 -14 -5 -25 -2 -11 -9 -21 -14 -23 -6 -2 -11 -8 -11 -14 0 -20 -42 -69 -59
-67 -9 1 -18 1 -21 0 -3 -1 -21 -4 -41 -6 -49 -5 -63 -9 -70 -18 -3 -5 -22 -9
-42 -10 -20 -2 -39 -6 -43 -10 -4 -4 -14 -2 -21 5 -9 7 -17 8 -21 2 -4 -5 -14
-9 -22 -9 -8 0 -20 -6 -27 -15 -11 -13 -12 -13 -13 2 0 11 -5 15 -15 12 -8 -4
-13 -9 -11 -13 7 -11 -38 -8 -46 3 -5 7 -8 7 -8 -1 0 -7 -7 -10 -17 -6 -12 5
-14 3 -8 -8 7 -12 6 -12 -7 -1 -13 10 -17 10 -22 -5 -6 -14 -9 -15 -15 -4 -6
9 -11 10 -15 2 -4 -6 -12 -8 -18 -5 -7 5 -9 2 -5 -8 6 -16 -15 -19 -29 -5 -12
11 -26 8 -18 -4 4 -7 -1 -7 -16 1 -21 11 -22 10 -16 -6 6 -18 5 -18 -7 -2 -13
17 -15 16 -26 -5 -6 -12 -10 -15 -7 -6 2 9 -2 16 -10 16 -7 0 -10 -5 -7 -10 4
-6 0 -8 -10 -4 -12 4 -17 1 -18 -11 0 -14 -2 -14 -7 -2 -8 17 -42 23 -42 8 0
-5 -4 -6 -10 -3 -5 3 -10 1 -10 -5 0 -6 -4 -8 -10 -5 -5 3 -10 1 -10 -6 0 -9
-3 -9 -14 0 -12 10 -17 8 -26 -9 -9 -17 -14 -19 -25 -10 -17 14 -38 4 -28 -13
3 -7 -3 -4 -15 6 -20 19 -21 18 -15 -5 4 -18 3 -20 -6 -8 -10 13 -12 13 -21 0
-6 -10 -10 -11 -10 -2 0 6 -5 12 -11 12 -6 0 -9 -7 -5 -15 7 -19 1 -19 -18 1
-9 9 -16 11 -16 4 0 -6 -4 -9 -8 -6 -5 3 -19 -1 -33 -8 -13 -7 -31 -10 -38 -8
-8 3 -11 0 -8 -6 9 -14 -29 -22 -42 -9 -8 8 -11 8 -11 -1 0 -7 -3 -11 -7 -11
-5 1 -10 0 -13 -1 -13 -4 -47 -12 -66 -14 -12 -1 -29 -10 -38 -18 -9 -9 -27
-15 -41 -14 -13 2 -22 -1 -19 -5 3 -5 -6 -9 -20 -9 -14 0 -26 -4 -26 -8 0 -5
-7 -9 -15 -10 -8 -1 -22 -3 -30 -4 -8 -1 -15 -5 -15 -10 0 -5 -4 -6 -10 -3 -5
3 -10 1 -10 -5 0 -6 -4 -9 -9 -5 -5 3 -12 1 -16 -5 -4 -6 -11 -8 -16 -5 -5 4
-9 1 -9 -4 0 -6 -3 -10 -7 -10 -25 4 -43 -2 -37 -13 5 -8 2 -9 -9 -5 -10 3
-17 3 -17 -1 0 -4 -9 -13 -21 -20 -14 -9 -19 -10 -14 -2 6 9 2 9 -14 1 -11 -7
-21 -14 -21 -17 0 -3 5 -2 12 2 7 4 8 3 4 -5 -4 -6 -13 -11 -19 -10 -26 3 -38
-2 -31 -13 5 -8 0 -9 -14 -6 -16 4 -22 2 -22 -9 0 -9 -6 -13 -14 -10 -8 3 -17
-1 -20 -9 -3 -8 -12 -14 -20 -14 -8 0 -27 -12 -42 -27 -15 -16 -22 -20 -15
-10 8 9 9 17 3 17 -13 0 -24 -29 -15 -42 3 -7 1 -8 -6 -4 -6 4 -18 2 -26 -4
-8 -7 -15 -10 -15 -7 0 4 -10 -4 -23 -16 -13 -13 -21 -30 -19 -42 2 -12 0 -16
-5 -10 -13 16 -36 17 -30 2 6 -15 -27 -49 -38 -39 -3 3 -8 -4 -12 -16 -3 -12
-10 -22 -15 -22 -5 0 -7 -4 -4 -9 3 -5 -4 -11 -15 -14 -12 -3 -18 -10 -14 -16
3 -6 2 -11 -2 -11 -10 0 -37 -59 -36 -77 1 -7 -3 -13 -8 -13 -5 0 -9 -7 -9
-16 0 -8 -4 -13 -9 -10 -4 3 -6 -6 -3 -21 4 -20 2 -24 -9 -18 -12 8 -12 6 0
-8 7 -9 9 -17 4 -17 -13 0 -11 -43 2 -52 6 -4 1 -8 -9 -8 -19 0 -19 0 -1 -13
14 -11 15 -16 5 -22 -9 -6 -11 -4 -5 5 5 8 4 11 -2 7 -10 -7 -11 -42 -1 -53 4
-3 4 -12 1 -20 -3 -8 0 -14 7 -14 6 0 8 -4 5 -10 -3 -5 1 -20 10 -33 8 -13 12
-27 8 -30 -3 -4 -1 -7 6 -7 7 0 9 -4 6 -10 -3 -6 1 -7 9 -4 9 4 16 1 16 -6 0
-14 38 -50 52 -50 4 0 8 -6 8 -13 0 -7 17 -21 38 -32 20 -10 45 -26 55 -34 9
-8 17 -11 17 -6 0 4 11 0 25 -9 13 -9 31 -16 40 -16 8 0 15 -5 15 -11 0 -5 5
-7 10 -4 6 3 13 0 16 -8 2 -7 10 -14 17 -15 39 -4 53 -8 63 -21 6 -8 20 -15
30 -16 11 0 25 -4 31 -8 6 -4 15 -2 19 4 5 8 3 9 -6 4 -9 -5 -11 -4 -6 3 8 13
46 -5 46 -22 0 -4 11 -6 25 -4 13 3 22 2 20 -3 -3 -4 -1 -10 5 -14 5 -3 10 -1
10 5 0 7 6 8 19 0 25 -13 44 -13 36 0 -3 6 -1 10 4 10 6 0 11 -5 11 -11 0 -8
6 -7 17 2 11 10 14 10 9 2 -4 -7 -3 -13 3 -13 5 0 13 5 16 10 4 7 13 6 27 -1
11 -6 18 -7 15 -2 -3 5 44 9 104 10 61 2 115 5 121 9 5 4 65 8 132 9 66 2 132
6 146 10 14 4 108 9 210 11 172 4 324 9 445 17 28 1 62 -1 78 -4 15 -4 27 -5
27 -1 0 4 26 7 58 6 31 0 83 2 115 6 65 7 87 0 69 -23 -7 -7 -9 -17 -5 -20 3
-4 1 -7 -6 -7 -7 0 -9 -4 -6 -10 3 -5 0 -10 -7 -10 -9 0 -9 -3 2 -10 13 -9 8
-14 -12 -11 -4 0 -5 -12 -3 -27 1 -15 -2 -33 -9 -41 -6 -7 -11 -19 -12 -25 0
-6 -2 -17 -2 -23 -1 -7 -10 -13 -19 -13 -15 0 -14 -2 3 -15 10 -8 14 -15 7
-15 -11 0 -29 -37 -25 -52 1 -5 -3 -8 -9 -8 -5 0 -7 -4 -4 -10 3 -5 2 -10 -3
-10 -5 0 -8 -13 -7 -30 1 -16 -2 -27 -7 -24 -4 3 -8 -4 -8 -15 0 -12 -4 -21
-9 -21 -6 0 -10 -8 -9 -17 0 -21 -7 -48 -20 -83 -5 -14 -10 -28 -11 -32 -4
-20 -14 -45 -27 -69 -7 -14 -11 -29 -7 -33 3 -3 2 -6 -4 -6 -5 0 -10 -6 -10
-12 0 -7 -6 -33 -13 -58 -8 -25 -14 -48 -14 -52 -1 -3 -4 -10 -8 -14 -5 -4 -8
-18 -8 -30 0 -13 -4 -25 -10 -29 -5 -3 -7 -12 -4 -19 3 -7 -2 -16 -12 -20 -13
-5 -14 -9 -5 -20 8 -10 9 -16 1 -21 -5 -3 -10 -15 -10 -26 0 -11 -7 -22 -16
-26 -8 -3 -13 -12 -10 -19 3 -7 1 -16 -5 -19 -5 -4 -7 -10 -4 -15 3 -5 -2 -16
-11 -24 -11 -12 -12 -16 -2 -16 10 0 9 -3 -2 -10 -8 -5 -11 -10 -6 -10 4 0 1
-11 -8 -25 -9 -14 -14 -25 -10 -25 4 0 2 -6 -4 -12 -6 -7 -13 -30 -17 -50 -4
-21 -10 -36 -14 -34 -3 2 -7 -10 -8 -26 -1 -17 -8 -37 -14 -44 -7 -8 -9 -17
-6 -20 7 -8 -13 -64 -23 -64 -5 0 -7 -11 -5 -25 1 -14 -3 -29 -9 -33 -10 -6
-15 -22 -18 -59 -1 -7 -5 -13 -10 -13 -4 0 -7 -3 -7 -7 3 -17 -14 -73 -22 -73
-4 0 -6 -8 -4 -18 2 -10 -7 -39 -20 -64 -13 -26 -21 -49 -18 -52 4 -3 0 -6 -8
-6 -11 0 -11 -2 1 -10 12 -7 12 -10 1 -10 -7 0 -11 -6 -8 -14 3 -8 2 -16 -3
-18 -6 -2 -11 -15 -12 -30 -1 -16 -5 -28 -9 -28 -8 0 -20 -34 -25 -68 -1 -13
-8 -30 -14 -37 -6 -8 -14 -29 -17 -47 -3 -18 -8 -35 -11 -38 -7 -5 -12 -28
-15 -62 -1 -10 -6 -18 -11 -18 -5 0 -7 -3 -3 -6 3 -4 0 -21 -8 -39 -7 -19 -11
-36 -7 -39 3 -3 1 -6 -5 -6 -12 0 -26 -37 -23 -62 1 -10 -4 -18 -9 -18 -6 0
-11 -9 -11 -19 0 -11 -4 -22 -10 -26 -5 -3 -7 -12 -4 -19 3 -8 1 -17 -5 -20
-6 -4 -8 -13 -4 -21 3 -8 0 -15 -7 -15 -6 0 -8 -4 -5 -10 3 -5 1 -10 -6 -10
-7 0 -9 -3 -6 -7 4 -3 0 -17 -9 -31 -9 -13 -11 -21 -5 -18 6 4 11 3 11 -2 0
-6 -6 -12 -14 -15 -8 -3 -13 -14 -11 -24 1 -10 -2 -23 -7 -30 -5 -7 -7 -16 -4
-22 3 -5 -1 -11 -9 -14 -8 -4 -12 -15 -10 -26 2 -11 -3 -25 -11 -32 -12 -10
-12 -14 -2 -20 10 -7 10 -9 1 -9 -7 0 -13 -7 -13 -16 0 -8 -5 -12 -11 -9 -5 4
-32 -3 -59 -14 -79 -34 -104 -44 -120 -47 -13 -3 -53 -18 -128 -51 -18 -8 -41
-16 -51 -18 -11 -2 -33 -11 -50 -19 -16 -9 -36 -16 -44 -16 -8 0 -17 -6 -20
-14 -4 -9 9 -18 41 -29 26 -8 92 -31 147 -52 55 -20 107 -38 115 -40 26 -7
204 -70 215 -76 6 -4 31 -12 58 -20 26 -7 47 -18 47 -23 0 -5 3 -7 6 -4 7 8
216 -60 231 -76 11 -11 23 -7 23 9 0 8 14 22 32 31 33 17 43 25 86 64 15 14
43 37 62 50 45 31 58 42 73 58 13 15 10 12 149 145 l97 93 -77 39 c-42 22 -84
46 -94 54 -9 8 -57 31 -105 52 -48 20 -109 48 -136 62 -41 21 -52 23 -80 13
-17 -6 -38 -15 -45 -20 -8 -5 -18 -4 -25 3 -7 7 -6 12 7 17 14 5 14 9 4 22
-10 12 -10 14 0 8 8 -5 12 0 12 13 0 12 4 21 9 21 5 0 11 12 14 28 3 15 7 34
10 42 2 8 8 30 12 47 4 18 11 30 16 27 5 -3 6 3 2 12 -5 13 -3 15 8 9 11 -7
12 -6 2 6 -10 12 -10 18 -1 27 7 7 9 12 4 12 -4 0 0 7 8 16 19 18 21 38 4 28
-7 -4 -4 2 6 14 11 12 16 22 12 22 -4 0 0 10 8 21 8 12 12 27 9 35 -3 8 3 17
12 20 13 5 14 9 3 15 -10 7 -10 9 0 9 6 0 12 9 12 20 0 11 6 20 13 20 8 0 7 4
-3 10 -11 7 -12 10 -2 10 8 0 13 9 11 23 -3 29 10 59 23 51 6 -4 8 2 3 15 -4
13 -2 21 5 21 6 0 8 5 5 10 -3 6 0 10 7 10 8 0 9 3 2 8 -7 5 -7 14 1 29 7 13
14 20 17 18 3 -3 4 8 2 25 -2 18 1 30 8 30 6 0 8 3 5 7 -4 3 -1 13 6 21 9 13
9 14 -1 8 -6 -4 -3 9 9 28 11 19 18 40 14 46 -3 5 -1 10 5 10 6 0 8 5 5 10 -3
6 -1 10 5 10 6 0 8 5 4 11 -3 6 -2 14 4 18 6 3 12 20 14 36 2 17 10 35 18 41
12 10 12 15 2 27 -11 13 -10 17 3 24 14 8 26 39 27 73 0 8 5 20 10 27 5 7 7
17 3 22 -3 6 0 8 9 5 10 -4 14 0 12 13 -2 10 1 27 7 38 6 11 12 29 14 40 2 11
8 24 13 29 4 4 6 15 3 22 -3 8 0 14 5 14 6 0 9 11 6 25 -2 14 -1 25 4 25 5 0
14 12 20 26 10 20 10 24 0 18 -10 -5 -10 -4 -1 6 6 7 9 18 7 25 -3 6 2 18 11
25 8 7 15 23 15 36 0 12 6 29 13 36 7 7 12 23 11 36 -1 12 3 22 9 22 5 0 7 9
4 21 -3 12 0 22 9 26 8 3 13 12 10 19 -3 8 -1 14 5 14 6 0 7 4 4 10 -3 5 1 20
8 32 8 13 13 31 12 41 -2 10 1 14 7 10 7 -4 9 2 6 15 -4 12 -2 22 4 22 6 0 8
7 5 15 -4 8 -2 17 4 20 5 4 7 11 4 16 -4 5 -1 9 5 9 7 0 9 7 6 16 -3 8 -2 12
4 9 6 -4 10 5 10 20 0 14 4 24 8 21 4 -2 8 3 9 12 3 43 8 62 15 62 4 0 8 9 8
21 0 13 4 18 13 13 9 -6 9 -4 -1 8 -11 14 -11 18 0 25 12 8 18 24 21 66 1 9 4
17 7 17 3 0 6 10 7 22 1 11 6 24 10 27 4 3 8 11 9 16 1 24 17 65 23 61 4 -3 8
5 8 17 2 26 6 43 22 80 6 16 8 34 4 40 -4 7 0 8 12 3 15 -5 16 -4 5 9 -10 12
-10 15 0 15 7 0 10 7 7 15 -4 8 -2 17 4 20 5 4 7 10 4 15 -3 4 2 11 11 14 8 3
12 10 9 16 -3 5 -1 10 5 10 7 0 10 7 6 18 -6 16 -5 16 8 -1 10 -14 15 -15 19
-5 3 8 6 6 6 -6 1 -13 4 -16 14 -9 16 13 107 14 107 1 0 -7 4 -7 13 0 19 15
87 22 87 8 0 -7 4 -6 9 2 7 12 11 11 22 -1 12 -13 16 -13 32 1 16 15 17 15 11
-1 -4 -12 -2 -17 7 -15 8 2 13 -3 11 -12 -3 -11 2 -10 17 4 26 24 26 26 0 21
-12 -3 -19 -1 -15 2 12 12 47 13 68 2 16 -8 19 -8 13 1 -6 9 -2 9 14 0 12 -6
18 -16 15 -22 -4 -7 -3 -8 5 -4 6 4 8 12 5 18 -5 8 1 9 17 4 13 -4 29 -8 36
-10 7 -1 16 -5 19 -9 4 -4 16 1 27 10 11 10 18 13 14 8 -3 -6 -2 -17 4 -25 7
-13 9 -12 9 3 0 9 4 17 10 17 5 0 14 -8 20 -17 11 -17 11 -17 6 0 -5 15 -2 16
14 7 11 -6 20 -7 20 -2 0 5 7 9 15 9 9 0 14 -6 11 -14 -7 -17 10 -17 18 0 5
10 7 10 12 0 3 -7 10 -13 15 -13 6 0 8 4 5 8 -3 5 1 9 9 9 8 0 12 -4 9 -9 -3
-4 -1 -8 5 -8 5 0 11 5 13 12 3 8 12 9 36 0 18 -6 39 -9 47 -6 9 4 15 0 15 -7
0 -11 3 -11 10 1 7 11 10 11 10 2 0 -7 4 -11 9 -7 15 8 71 13 71 5 0 -7 -2 -7
93 -14 38 -2 67 0 67 5 0 5 7 9 16 9 8 0 13 -4 10 -9 -3 -5 12 -8 34 -6 29 2
40 -1 40 -11 0 -17 12 -18 28 -2 7 7 12 8 12 2 0 -6 7 -11 15 -11 8 0 12 4 9
9 -6 10 10 11 20 1 4 -5 17 -8 29 -9 12 -1 30 -4 40 -9 9 -4 24 -5 32 -2 8 4
17 2 21 -4 3 -6 12 -8 20 -5 8 3 14 1 14 -4 0 -6 10 -8 23 -6 12 2 27 0 32 -3
10 -7 88 -28 140 -37 17 -3 57 -12 90 -21 60 -15 82 -20 121 -28 12 -3 40 -12
63 -20 23 -8 45 -14 49 -14 4 1 10 0 15 -1 12 -4 20 -6 70 -14 26 -4 72 -16
102 -26 30 -10 55 -16 55 -13 0 3 7 -1 17 -8 9 -8 19 -13 22 -12 3 2 29 -5 56
-14 28 -10 52 -18 55 -18 3 -1 21 -9 40 -17 35 -15 71 -30 80 -33 3 -1 19 -8
35 -15 17 -8 35 -14 41 -15 6 0 18 -5 25 -11 8 -6 28 -14 44 -18 41 -10 165
-67 165 -77 0 -4 9 -5 20 -2 11 3 20 0 20 -6 0 -6 6 -10 13 -8 6 1 11 -4 9
-11 -1 -8 2 -11 7 -7 6 3 18 -3 27 -14 9 -10 22 -18 28 -17 6 2 8 1 4 -1 -5
-3 -8 -9 -8 -14 0 -6 5 -7 10 -4 6 3 10 -1 10 -9 0 -18 40 -47 53 -39 6 3 7 1
3 -5 -4 -6 3 -21 14 -32 12 -12 19 -28 16 -36 -3 -9 -1 -12 4 -9 5 3 17 -10
27 -29 9 -20 21 -36 26 -36 4 0 5 -10 2 -21 -5 -14 -3 -19 3 -15 6 3 14 -4 17
-16 4 -13 13 -30 20 -38 13 -16 15 -58 3 -75 -4 -6 -3 -17 3 -25 13 -21 11
-60 -3 -60 -6 0 -3 -7 8 -15 10 -8 14 -15 7 -15 -7 0 -10 -7 -7 -15 4 -8 0
-23 -7 -32 -12 -14 -12 -16 0 -9 10 7 12 0 8 -35 -3 -24 -6 -45 -6 -46 -1 -2
-8 -3 -16 -3 -8 0 -15 -4 -15 -10 0 -5 5 -10 10 -10 6 0 10 -9 10 -21 0 -11
-4 -17 -10 -14 -5 3 -10 1 -10 -5 0 -7 -7 -9 -16 -6 -9 3 -12 2 -9 -5 4 -6 13
-8 21 -5 8 3 14 1 14 -4 0 -6 -6 -10 -12 -10 -9 0 -8 -3 2 -10 12 -7 10 -12
-12 -30 -21 -16 -26 -27 -23 -50 2 -17 -1 -30 -6 -30 -6 0 -8 -4 -4 -9 3 -5 1
-12 -5 -16 -5 -3 -10 -1 -10 4 0 6 -4 11 -9 11 -4 0 -6 -11 -4 -24 4 -17 -3
-32 -20 -50 -14 -14 -22 -28 -18 -32 3 -4 -2 -4 -11 -1 -10 3 -20 1 -24 -5 -4
-7 -3 -8 4 -4 8 4 12 0 11 -11 -1 -21 -17 -63 -18 -48 -1 6 -11 -5 -22 -22
-12 -18 -25 -33 -31 -33 -5 0 -6 -5 -3 -11 4 -6 -2 -13 -13 -16 -14 -3 -18
-11 -15 -24 4 -13 0 -19 -11 -19 -9 0 -15 -3 -15 -7 3 -21 -2 -34 -11 -28 -6
4 -10 3 -9 -2 3 -19 -2 -46 -7 -40 -7 7 -44 -30 -44 -45 0 -4 -5 -8 -11 -8 -5
0 -7 5 -3 12 4 7 3 8 -5 4 -6 -4 -8 -12 -5 -18 4 -6 -10 -25 -31 -43 -23 -21
-34 -38 -29 -46 4 -8 3 -10 -5 -5 -19 12 -118 -97 -113 -125 1 -4 -9 -6 -21
-5 -14 1 -21 -4 -19 -13 2 -8 -3 -11 -11 -8 -8 3 -14 -1 -14 -9 0 -8 4 -14 9
-14 5 0 6 -5 3 -11 -4 -6 -13 -8 -21 -5 -8 3 -14 1 -14 -5 0 -6 -5 -7 -12 -3
-8 5 -9 2 -5 -9 3 -10 2 -17 -3 -17 -6 0 -10 -5 -10 -11 0 -5 6 -7 13 -3 7 4
7 2 -2 -7 -10 -11 -15 -11 -18 -1 -3 6 -10 12 -15 12 -6 0 -8 -3 -5 -7 4 -3
-1 -12 -11 -20 -16 -14 -16 -14 3 -9 19 6 19 5 3 -7 -10 -8 -14 -18 -11 -23 4
-5 2 -4 -6 3 -11 9 -17 9 -28 -3 -8 -7 -12 -18 -8 -24 3 -6 -1 -7 -9 -4 -9 3
-16 1 -16 -6 0 -6 -4 -8 -10 -5 -5 3 -10 1 -10 -5 0 -6 -4 -8 -10 -5 -5 3 -10
1 -10 -5 0 -6 -4 -8 -10 -5 -6 4 -7 -1 -3 -11 4 -12 3 -15 -5 -10 -7 4 -15 0
-18 -9 -5 -11 -10 -13 -19 -5 -9 8 -11 4 -8 -14 3 -13 -1 -27 -8 -31 -7 -5
-10 -4 -5 3 3 6 2 13 -3 16 -5 4 -12 -3 -16 -14 -3 -11 -11 -20 -17 -20 -5 0
-7 -8 -4 -17 4 -10 4 -14 0 -10 -4 4 -14 1 -22 -6 -13 -10 -14 -9 -7 3 8 13 7
13 -11 0 -30 -23 -62 -58 -58 -63 3 -2 -7 -3 -21 -1 -23 2 -24 0 -13 -14 9
-11 9 -14 1 -9 -15 9 -53 -13 -53 -30 0 -7 -5 -13 -11 -13 -5 0 -7 4 -4 10 3
6 -1 7 -9 4 -8 -3 -18 -14 -21 -24 -4 -11 -12 -17 -21 -13 -7 3 -14 0 -14 -6
0 -6 -17 -19 -37 -30 -21 -11 -34 -20 -28 -21 5 0 -1 -7 -13 -16 -12 -8 -20
-20 -17 -25 3 -5 -1 -6 -9 -3 -9 3 -16 1 -16 -5 0 -6 -7 -8 -15 -5 -10 4 -15
0 -15 -15 0 -14 -5 -19 -14 -15 -8 3 -23 -4 -33 -15 -9 -12 -23 -21 -30 -21
-7 0 -13 -3 -13 -8 0 -12 -100 -73 -110 -67 -6 4 -7 -1 -3 -11 5 -14 2 -16
-14 -12 -16 4 -19 1 -17 -19 2 -19 0 -22 -11 -13 -10 8 -14 7 -18 -2 -4 -10
-6 -10 -6 0 -1 7 -9 4 -22 -9 -11 -11 -27 -18 -36 -15 -11 5 -14 2 -9 -10 5
-14 4 -15 -9 -4 -13 11 -14 10 -10 -2 8 -20 -25 -34 -37 -16 -5 9 -8 6 -8 -9
0 -13 -5 -23 -11 -23 -5 0 -7 5 -3 12 4 7 3 8 -4 4 -7 -4 -12 -15 -12 -24 0
-13 -2 -13 -16 4 -8 10 -13 13 -9 7 3 -7 0 -13 -7 -13 -10 0 -10 -2 -1 -8 16
-10 -14 -30 -39 -26 -11 1 -18 -4 -19 -14 0 -11 -2 -12 -6 -4 -2 6 -9 12 -14
12 -4 0 -6 -7 -2 -15 3 -9 2 -15 -3 -14 -21 4 -35 -2 -29 -11 3 -5 -3 -10 -14
-10 -11 0 -23 -5 -26 -10 -4 -6 -11 -8 -16 -5 -5 4 -12 -1 -15 -10 -4 -9 -13
-14 -20 -11 -7 3 -20 -2 -29 -10 -8 -9 -22 -17 -29 -18 -8 -1 -22 -8 -32 -16
-16 -14 -17 -13 -10 4 5 15 1 13 -18 -7 -14 -15 -32 -27 -41 -27 -9 0 -36 -11
-59 -25 -24 -14 -46 -22 -51 -17 -4 4 -5 -1 -2 -10 4 -12 2 -15 -9 -11 -8 3
-14 -1 -14 -8 0 -12 -2 -12 -9 0 -7 10 -12 8 -24 -9 -11 -15 -16 -18 -20 -8
-5 10 -9 9 -17 -5 -6 -9 -15 -15 -20 -12 -12 7 -61 -16 -54 -26 3 -5 -3 -6
-12 -2 -13 5 -15 3 -9 -7 6 -9 4 -11 -4 -6 -7 5 -21 0 -33 -11 -12 -10 -18
-12 -14 -5 4 6 2 12 -3 12 -6 0 -11 -6 -11 -14 0 -8 -8 -13 -17 -12 -10 0 -17
-4 -16 -10 1 -7 -6 -10 -17 -7 -13 3 -20 0 -20 -8 0 -11 -2 -11 -8 -1 -6 9
-12 6 -20 -13 -6 -14 -21 -26 -32 -26 -11 -1 -24 -3 -30 -4 -5 -1 -15 -3 -21
-4 -5 0 -7 -5 -4 -11 3 -5 -2 -11 -12 -12 -33 -2 -38 -3 -50 -11 -8 -5 -13 -3
-13 5 0 8 -4 7 -10 -4 -6 -9 -19 -15 -30 -13 -11 2 -19 1 -18 -3 3 -17 -15
-40 -28 -35 -8 3 -12 9 -9 13 3 5 -6 3 -19 -3 -20 -10 -22 -15 -13 -26 10 -12
9 -13 -9 -3 -12 6 -26 7 -34 2 -8 -5 -17 -7 -21 -5 -3 3 -12 -7 -19 -20 -7
-13 -20 -27 -28 -30 -12 -5 -13 -3 -2 10 11 14 10 14 -12 6 -14 -5 -29 -7 -32
-4 -3 4 -6 1 -6 -6 0 -7 -4 -10 -9 -6 -6 3 -8 -3 -6 -13 3 -16 -2 -18 -33 -15
-19 2 -42 1 -51 -3 -28 -12 -55 -12 -70 0 -11 8 -13 8 -8 0 8 -15 -12 -32 -43
-37 -12 -2 -29 -14 -37 -28 -8 -13 -12 -16 -9 -7 4 14 0 17 -17 14 -12 -3 -23
-5 -24 -7 -2 -1 -8 -2 -14 -3 -7 0 -15 -10 -19 -20 -4 -14 -9 -16 -14 -8 -4 7
-12 10 -17 7 -13 -9 -11 9 4 25 6 8 2 6 -10 -4 -13 -10 -20 -23 -16 -29 3 -6
1 -7 -6 -3 -6 4 -19 2 -27 -5 -17 -14 -29 -6 -18 12 9 15 12 36 16 99 2 25 6
47 10 50 3 3 9 28 12 55 2 28 10 77 16 110 6 33 13 74 15 90 3 17 8 50 12 75
4 25 8 56 9 70 3 26 12 85 20 135 13 79 15 105 7 105 -5 0 -52 -41 -104 -91
-304 -295 -350 -341 -360 -366 -25 -71 -103 -271 -115 -300 -8 -17 -14 -38
-14 -47 0 -9 -4 -16 -10 -16 -5 0 -10 -11 -10 -24 0 -14 -5 -28 -11 -32 -6 -3
-9 -19 -7 -35 3 -21 1 -26 -6 -19 -5 5 -14 10 -18 10 -8 0 -27 -41 -32 -65 -1
-5 -5 -16 -9 -22 -5 -7 -5 -18 -1 -25 4 -6 3 -8 -4 -4 -6 3 -13 -4 -17 -16 -4
-13 -18 -46 -31 -75 -13 -28 -24 -56 -24 -61 0 -4 -9 -27 -20 -50 -12 -24 -25
-64 -31 -90 -10 -52 -12 -59 -23 -84 -4 -9 -9 -25 -11 -35 -2 -10 -4 -20 -5
-23 -1 -3 -2 -8 -1 -12 1 -8 -22 -73 -45 -125 -8 -17 -14 -36 -14 -42 0 -6 -9
-33 -21 -59 -12 -26 -25 -56 -30 -67 -5 -11 -16 -42 -25 -69 -9 -27 -28 -68
-42 -90 -14 -23 -32 -66 -39 -96 -8 -30 -19 -72 -24 -93 -5 -21 -19 -58 -31
-84 -12 -25 -21 -52 -21 -59 0 -8 -5 -14 -10 -14 -5 0 -3 -8 4 -17 7 -10 9
-15 5 -11 -10 9 -49 -69 -41 -81 4 -7 -58 -182 -73 -206 -4 -5 -8 -19 -9 -29
-2 -11 -8 -25 -14 -33 -6 -7 -9 -13 -5 -13 4 0 -1 -14 -9 -31 -25 -48 -12 -45
44 8 28 26 56 53 63 58 16 13 114 99 191 167 31 28 57 55 57 58 0 12 -47 18
-64 8 -10 -5 -16 -5 -16 0 0 6 7 13 16 16 8 3 12 11 9 16 -5 8 -12 7 -23 -2
-15 -12 -16 -11 -4 4 11 14 17 15 32 6 10 -7 16 -16 14 -20 -3 -4 4 -8 16 -8
14 0 19 4 14 13 -4 6 -3 9 1 4 5 -4 17 1 28 10 20 18 20 18 1 -12 -18 -30 -18
-30 1 -14 30 24 55 31 61 15 3 -7 11 -13 19 -13 12 0 12 4 -2 21 -10 12 -11
15 -3 9 17 -15 34 -17 25 -3 -4 6 1 7 11 3 11 -4 13 -8 6 -11 -7 -2 -12 -8
-12 -13 0 -11 36 -6 47 6 5 4 3 5 -3 2 -6 -3 -11 0 -11 8 0 9 11 6 36 -12 20
-14 26 -16 13 -5 -16 15 -19 23 -10 28 6 4 14 2 16 -4 2 -7 8 -12 13 -12 6 0
8 4 5 9 -3 5 10 8 29 8 41 -1 48 -17 8 -17 -14 0 -24 -3 -20 -6 3 -3 -7 -18
-23 -32 -21 -19 -30 -40 -34 -72 -7 -50 -13 -83 -20 -108 -3 -9 -6 -39 -7 -67
-1 -27 -7 -56 -12 -63 -5 -7 -8 -15 -5 -18 3 -2 1 -26 -4 -52 -5 -26 -11 -60
-13 -77 -13 -110 -16 -135 -25 -180 -14 -74 -20 -115 -24 -160 -1 -22 -6 -49
-10 -61 -3 -11 -8 -41 -11 -65 -2 -24 -14 -100 -25 -169 -12 -69 -22 -141 -24
-160 -1 -19 -5 -42 -9 -50 -3 -8 -8 -40 -11 -70 -6 -58 -12 -103 -23 -160 -3
-19 -7 -46 -8 -60 -2 -14 -10 -68 -18 -120 -22 -137 -28 -171 -32 -210 -3 -19
-8 -48 -12 -65 -3 -16 -8 -39 -9 -50 -4 -38 -24 -180 -35 -245 -10 -59 -15
-105 -18 -152 -1 -10 -5 -18 -9 -18 -4 0 -57 36 -118 81 -134 100 -266 182
-319 199 -46 15 -169 16 -252 1 -32 -6 -74 -11 -93 -12 -19 -1 -84 -10 -144
-20 -144 -25 -137 -26 -125 14 6 17 11 37 13 42 2 10 32 79 46 105 4 9 11 31
15 50 4 19 11 41 15 50 4 8 12 26 18 40 5 14 17 41 26 62 9 20 16 45 16 56 0
12 4 23 9 27 5 3 17 29 26 58 10 28 21 56 26 61 5 6 9 18 9 28 0 10 4 18 8 18
4 0 9 12 10 26 1 15 6 32 11 38 4 6 21 47 36 91 15 44 33 94 40 110 14 34 27
65 31 80 9 30 37 104 49 132 8 17 15 33 15 36 0 3 5 18 12 34 6 15 12 33 14
38 5 19 66 180 80 212 8 17 14 33 14 36 0 3 5 18 11 34 6 15 10 29 10 30 -1 2
11 29 25 60 14 32 27 66 29 75 2 10 10 32 18 50 8 18 23 58 33 88 10 30 24 63
32 72 8 9 11 21 8 27 -4 5 -2 12 3 15 5 3 12 18 15 33 4 16 15 46 26 68 18 41
31 85 27 96 -1 4 5 15 14 25 9 11 15 27 14 37 -2 9 0 17 5 17 4 0 14 20 21 45
7 25 17 45 22 45 5 0 7 7 4 15 -4 8 -2 17 2 19 5 3 14 27 21 53 8 27 16 50 19
53 4 3 14 30 24 60 20 59 26 75 51 132 9 20 16 39 16 43 0 8 103 280 124 330
8 17 28 73 46 125 18 52 51 142 75 200 24 58 49 124 56 148 6 23 15 42 18 42
4 0 8 11 9 24 1 14 11 41 22 60 11 20 17 36 13 36 -4 0 -2 5 5 12 7 7 12 17
12 24 0 6 8 29 17 50 9 22 18 48 20 59 2 11 14 43 27 71 13 29 27 66 31 83 3
17 11 33 16 36 5 4 9 17 9 30 0 13 4 25 8 27 7 3 67 173 67 191 0 8 -86 43
-126 52 -9 2 -25 8 -35 13 -11 6 -44 18 -74 26 -30 9 -68 23 -84 31 -16 9 -31
13 -34 11 -2 -3 -17 1 -33 10 -16 8 -31 14 -34 14 -3 0 -22 7 -43 16 -20 8
-45 16 -54 17 -10 1 -18 5 -18 9 0 4 -3 7 -7 6 -10 -2 -64 13 -78 21 -11 6
-109 41 -185 67 -25 8 -54 19 -65 24 -66 28 -109 34 -122 17 -5 -6 -18 -38
-27 -69 -10 -32 -22 -58 -28 -58 -5 0 -7 -4 -4 -8 3 -5 -1 -19 -8 -33 -7 -13
-11 -30 -8 -37 2 -6 -1 -12 -7 -12 -6 0 -11 -9 -11 -20 0 -11 -4 -28 -9 -38
-6 -9 -24 -55 -42 -102 -17 -47 -43 -114 -56 -150 -21 -56 -44 -124 -48 -140
0 -3 -6 -14 -12 -25 -6 -12 -26 -63 -43 -115 -18 -52 -36 -99 -41 -104 -5 -6
-9 -20 -9 -31 0 -12 -3 -25 -7 -29 -5 -4 -8 -11 -8 -15 0 -4 -8 -25 -17 -46
-38 -90 -108 -274 -108 -284 0 -6 -4 -19 -9 -29 -5 -9 -16 -35 -24 -57 -9 -22
-27 -70 -41 -107 -14 -36 -26 -71 -26 -77 0 -6 -5 -11 -12 -11 -6 0 -9 -3 -5
-6 3 -4 0 -22 -8 -40 -8 -19 -14 -37 -14 -39 -1 -3 -8 -21 -16 -41 -8 -20 -15
-42 -15 -48 0 -7 -4 -16 -9 -22 -5 -5 -16 -35 -26 -66 -10 -32 -22 -58 -27
-58 -5 0 -8 -6 -5 -12 2 -7 -2 -25 -10 -40 -7 -16 -11 -28 -9 -28 3 0 -6 -24
-20 -54 -14 -30 -27 -64 -29 -75 -2 -11 -10 -35 -18 -53 -20 -44 -48 -121 -48
-130 1 -5 -11 -34 -25 -65 -14 -32 -27 -62 -28 -68 -5 -19 -17 -50 -27 -67 -5
-10 -9 -27 -9 -38 0 -11 -5 -20 -10 -20 -6 0 -9 -3 -8 -7 2 -7 -11 -47 -39
-123 -3 -8 -7 -19 -8 -25 -3 -10 -35 -92 -58 -145 -5 -14 -11 -29 -13 -35 -1
-5 -12 -37 -24 -70 -39 -103 -41 -110 -41 -113 1 -1 -6 -16 -14 -32 -9 -17
-13 -30 -9 -30 4 0 2 -6 -4 -12 -5 -7 -22 -47 -36 -88 -15 -41 -30 -84 -35
-95 -12 -28 -64 -168 -92 -245 -12 -36 -25 -69 -29 -75 -8 -11 -21 -61 -19
-71 0 -4 -3 -10 -9 -13 -5 -3 -21 -42 -37 -86 -37 -105 -51 -144 -66 -180 -7
-16 -13 -34 -15 -40 -1 -5 -24 -68 -51 -140 l-48 -130 -135 1 c-210 1 -279 32
-332 147 -14 28 -32 82 -42 119 -15 54 -29 81 -76 136 -73 87 -80 100 -85 165
-11 119 -15 134 -55 180 -44 49 -48 72 -26 135 8 22 13 49 11 59 -2 10 -4 26
-4 35 -2 37 -51 77 -139 110 -94 35 -117 54 -252 207 -110 125 -172 185 -255
247 -148 111 -198 137 -415 219 -20 7 -62 16 -95 20 -132 15 -189 29 -415 105
-129 44 -260 84 -290 90 -76 15 -107 28 -163 68 -48 34 -87 93 -87 131 0 35
60 123 144 211 120 127 147 189 160 375 4 44 12 102 20 130 11 42 11 59 -2
113 -15 67 -63 165 -119 243 -40 56 -66 125 -57 152 18 58 1 122 -55 197 -45
61 -77 79 -244 141 -67 24 -174 94 -258 169 -99 87 -290 312 -323 380 -4 8
-15 31 -26 50 l-18 35 28 30 c50 54 71 109 69 180 -2 74 -8 81 -89 118 -182
83 -347 92 -442 25 -19 -13 -33 -37 -44 -76 -9 -31 -29 -82 -44 -112 -15 -30
-38 -81 -50 -113 -24 -61 -51 -89 -104 -107 -39 -13 -67 -4 -133 40 -24 17
-61 33 -82 36 -33 5 -43 2 -77 -27 -47 -41 -69 -66 -86 -99 -7 -14 -15 -27
-18 -30 -40 -36 -128 -209 -123 -241 2 -13 22 -50 44 -82 44 -62 44 -65 7
-144 -6 -12 -8 -37 -4 -55 l6 -34 -69 -22 c-85 -28 -232 -32 -301 -9 -82 28
-145 36 -239 32 -86 -4 -98 -2 -167 27 -57 24 -82 41 -106 72 -43 56 -60 71
-96 90 -81 42 -168 4 -289 -125 -32 -34 -93 -123 -93 -135 0 -3 -8 -18 -19
-32 -83 -120 -220 -478 -247 -649 -3 -20 -14 -68 -24 -107 l-18 -71 -40 -3
c-26 -2 -61 6 -99 21 -32 14 -69 28 -82 32 -14 4 -47 23 -73 42 -50 34 -116
64 -202 90 -63 19 -165 12 -316 -21 -117 -26 -204 -33 -214 -17 -13 21 -55 18
-80 -6 -15 -13 -24 -28 -22 -32 3 -4 7 -19 10 -34 2 -14 11 -41 19 -59 8 -18
20 -47 27 -65 6 -17 22 -41 36 -54 13 -12 24 -28 24 -34 0 -6 11 -22 25 -35
15 -14 23 -31 21 -44 -6 -32 -28 -76 -38 -76 -5 0 -6 -4 -3 -10 3 -5 1 -10 -6
-10 -7 0 -9 -3 -6 -7 4 -3 2 -12 -5 -20 -6 -8 -12 -56 -13 -116 -1 -56 -5
-109 -9 -118 -4 -10 -3 -20 3 -24 8 -4 8 -12 1 -25 -7 -13 -7 -21 1 -25 6 -4
8 -13 5 -20 -3 -8 -1 -15 4 -17 4 -2 14 -31 21 -65 11 -55 11 -67 -4 -98 -19
-40 -31 -56 -67 -90 -60 -55 -155 -135 -162 -135 -5 0 -8 -6 -8 -13 0 -7 -9
-19 -20 -27 -11 -8 -20 -20 -20 -26 0 -6 -9 -23 -21 -38 -11 -14 -18 -26 -14
-26 5 0 -23 -48 -35 -60 -3 -3 -21 -36 -40 -75 -19 -38 -45 -80 -57 -91 -12
-12 -20 -24 -17 -26 8 -9 -103 -116 -148 -142 -42 -24 -96 -38 -248 -60 -31
-5 -226 -53 -261 -64 -25 -9 -190 -7 -401 5 -59 3 -116 2 -125 -2 -10 -5 -27
-10 -38 -12 -11 -2 -32 -16 -46 -31 -76 -79 -75 -79 -189 -51 -25 6 -73 11
-108 12 l-63 2 -77 -66 c-92 -79 -181 -167 -202 -199 -57 -88 -115 -102 -170
-40 -29 32 -70 52 -122 59 l-52 6 -20 65 c-21 70 -30 84 -65 95 -37 12 -185
13 -203 1 -15 -9 -24 -4 -49 24 l-31 34 -52 -57 c-28 -32 -57 -57 -63 -57 -7
0 -13 -4 -13 -9 0 -17 -128 -31 -267 -30 -163 2 -172 -1 -272 -95 -37 -33 -84
-74 -105 -91 -116 -93 -184 -176 -188 -234 -1 -17 -5 -31 -8 -31 -7 0 -5 -71
2 -90 4 -8 9 -32 11 -52 5 -33 1 -41 -38 -80 -43 -44 -75 -119 -75 -179 0 -33
25 -106 42 -122 89 -84 198 -114 283 -77 17 7 38 15 47 16 25 5 87 -35 93 -60
3 -11 3 -82 0 -156 -3 -74 -6 -244 -8 -377 -2 -156 -7 -247 -13 -253 -8 -8
-22 0 -50 27 -75 73 -151 102 -207 78 -73 -31 -105 -119 -78 -213 15 -51 66
-88 211 -153 94 -42 144 -75 135 -89 -3 -4 4 -15 15 -25 11 -10 20 -22 20 -28
0 -5 12 -36 26 -68 19 -42 37 -65 63 -81 20 -12 38 -25 41 -29 7 -10 4 -266
-5 -376 -7 -82 -6 -97 14 -147 27 -64 45 -82 89 -89 48 -8 185 -135 249 -232
30 -46 61 -75 118 -113 61 -41 103 -52 192 -52 89 0 84 2 151 -75 20 -23 34
-79 22 -83 -5 -2 -10 -10 -10 -18 0 -8 -5 -14 -11 -14 -6 0 -19 -10 -30 -22
-15 -19 -18 -40 -19 -108 0 -91 14 -146 46 -182 11 -13 27 -39 36 -58 26 -55
70 -146 107 -218 18 -37 36 -84 39 -105 5 -37 2 -42 -53 -93 -31 -30 -61 -54
-65 -54 -20 0 -55 -137 -52 -205 1 -34 18 -95 34 -127 10 -21 15 -38 11 -38
-5 0 -3 -4 2 -8 20 -14 33 -49 25 -63 -5 -8 -5 -19 1 -26 6 -7 8 -16 5 -21 -2
-4 0 -26 5 -48 12 -44 29 -224 33 -329 1 -62 -1 -73 -23 -97 -14 -16 -31 -28
-38 -28 -7 0 -13 -4 -13 -10 0 -14 -18 -13 -37 2 -35 28 -143 142 -143 152 0
6 -9 17 -20 24 -17 10 -29 10 -63 0 -80 -23 -132 -71 -152 -143 -10 -35 -13
-185 -4 -185 4 0 10 -10 14 -22 4 -13 8 -25 9 -28 28 -63 28 -66 16 -170 -6
-58 -13 -172 -13 -255 -3 -220 21 -275 143 -333 72 -33 195 -82 223 -88 20 -3
70 -34 103 -62 11 -9 50 -71 86 -137 117 -216 127 -228 306 -396 27 -25 68
-78 90 -116 33 -55 47 -72 70 -76 56 -11 97 0 162 46 69 48 176 97 210 97 55
0 171 -88 189 -143 6 -18 15 -67 21 -109 13 -105 56 -198 108 -235 22 -15 85
-59 139 -96 109 -75 213 -175 213 -205 0 -34 42 -126 74 -160 41 -44 90 -55
214 -49 95 5 105 4 124 -15 16 -16 19 -28 14 -56 -27 -157 -20 -185 64 -273
28 -29 53 -63 56 -76 5 -17 24 -32 70 -53 36 -16 78 -39 95 -51 37 -26 74 -83
82 -126 4 -18 14 -45 24 -59 11 -17 16 -42 14 -70 -3 -58 11 -63 108 -35 90
25 143 23 203 -11 47 -26 48 -27 34 -148 -8 -62 3 -92 46 -123 29 -22 97 -25
246 -12 l83 8 113 -77 c144 -96 228 -133 429 -187 66 -18 94 -20 185 -15 59 3
130 10 157 15 84 16 267 14 292 -4 25 -18 22 -28 -36 -129 -29 -49 -34 -68
-35 -126 -1 -63 2 -71 39 -125 47 -69 104 -110 154 -110 67 0 97 39 151 189
19 54 41 86 114 166 12 14 34 44 49 67 15 23 39 49 54 56 33 17 127 29 139 18
5 -4 34 -13 64 -20 30 -8 78 -24 105 -37 28 -12 82 -33 120 -45 106 -34 135
-52 213 -137 107 -116 169 -133 289 -81 l53 23 27 -20 c36 -27 47 -80 28 -135
-32 -89 -6 -145 86 -186 66 -30 72 -41 74 -147 3 -122 15 -156 90 -263 18 -26
97 -63 134 -63 16 0 57 20 95 46 85 56 100 54 178 -26 47 -49 64 -60 102 -65
24 -4 51 -5 58 -3 7 3 34 -1 60 -8 66 -17 188 -13 218 7 14 9 55 43 91 75 70
63 82 72 144 118 22 17 42 33 45 36 3 3 43 32 90 63 47 31 108 73 135 92 97
69 154 104 207 125 29 12 62 26 73 31 11 5 36 11 55 14 57 10 112 40 170 94
55 51 122 91 153 91 37 0 176 -45 252 -81 77 -36 166 -100 250 -178 99 -92
217 -148 335 -158 104 -8 147 49 216 292 21 73 38 95 75 95 46 0 80 -38 84
-92 4 -56 16 -80 51 -103 27 -17 27 -18 20 -110 -9 -136 20 -202 121 -277 138
-102 200 -185 190 -257 -10 -70 -29 -167 -44 -225 -8 -33 -17 -112 -20 -175
-8 -225 -32 -309 -112 -407 -31 -36 -43 -61 -47 -96 -4 -26 -14 -56 -23 -66
-18 -19 -118 -82 -131 -82 -5 0 -10 -3 -12 -8 -1 -4 -32 -28 -68 -54 -81 -57
-140 -108 -205 -176 -56 -60 -163 -205 -176 -240 -16 -42 -10 -89 21 -154 16
-34 30 -73 30 -85 0 -11 -13 -63 -30 -113 -47 -144 -39 -187 36 -194 41 -4 56
2 263 110 76 40 204 46 278 14 29 -12 58 -29 67 -39 29 -32 39 -104 40 -286 1
-167 3 -184 25 -233 26 -57 64 -95 138 -139 73 -43 109 -84 128 -146 13 -45
13 -47 -26 -124 -21 -43 -46 -111 -54 -152 -17 -79 -27 -105 -56 -136 -10 -12
-21 -35 -25 -52 -8 -38 5 -44 108 -44 67 0 80 -4 170 -50 136 -70 223 -168
241 -269 10 -56 49 -126 83 -149 51 -35 104 -29 177 22 34 23 70 50 81 59 33
30 83 33 126 9 49 -27 75 -27 105 4 20 19 25 34 25 77 0 102 20 124 61 66 20
-28 23 -42 20 -122 -1 -50 -3 -102 -4 -116 -3 -30 9 -83 30 -127 30 -65 160
-97 254 -63 30 11 55 20 56 20 1 0 9 13 18 30 17 32 23 148 11 190 -4 14 -23
61 -42 105 -40 97 -43 128 -15 180 27 50 27 114 1 162 -24 46 -25 55 -2 82 26
32 113 41 179 19 77 -25 108 -20 192 30 108 64 125 70 201 74 36 2 55 -5 96
-30 70 -44 155 -79 179 -74 11 2 46 28 77 58 31 30 60 54 65 54 4 0 16 -14 25
-30 18 -32 58 -53 82 -44 8 3 20 21 26 39 6 18 20 41 31 51 20 18 21 17 83
-49 37 -40 75 -71 93 -76 28 -8 38 -4 91 34 33 24 70 58 83 77 25 35 26 36 28
68 1 18 8 20 84 20 114 1 169 29 256 130 71 84 112 108 196 116 64 6 114 -8
165 -47 54 -41 162 -89 220 -98 54 -9 85 -8 185 4 55 7 66 5 115 -20 96 -48
170 -99 176 -120 3 -12 -8 -54 -25 -96 -37 -92 -48 -172 -31 -223 22 -69 124
-191 209 -250 29 -21 77 -61 106 -91 124 -124 229 -165 355 -139 87 18 103 15
149 -30 32 -31 46 -38 82 -39 56 -1 138 39 225 111 67 55 94 94 94 136 0 22 3
24 29 16 55 -15 101 -42 101 -59 1 -25 35 -61 61 -63 18 -2 27 -14 39 -47 20
-60 52 -81 120 -83 45 -1 67 6 125 36 39 20 80 50 93 66 25 32 53 38 71 17 8
-10 3 -33 -19 -90 -33 -85 -34 -133 -5 -189 68 -130 68 -129 75 -237 5 -92 11
-117 43 -191 20 -47 37 -94 37 -104 0 -29 64 -154 82 -159 9 -3 34 3 56 13
127 57 211 225 173 346 -19 60 -20 124 -2 142 30 29 45 83 42 147 -8 150 -8
148 17 151 13 2 54 -5 92 -17 42 -13 78 -18 92 -13 30 9 108 63 129 88 17 21
57 28 159 26 36 -1 86 3 110 9 25 5 77 11 115 12 39 1 75 4 82 6 7 3 26 26 43
52 53 84 54 84 162 70 52 -6 106 -9 119 -6 13 4 45 27 71 52 27 25 52 45 58
45 5 0 25 14 45 31 33 29 37 30 58 16 29 -19 81 -30 105 -23 11 4 30 32 46 70
25 59 31 65 89 94 34 16 73 33 87 37 14 4 30 11 35 15 6 3 31 14 57 24 102 37
125 85 93 191 -24 76 -24 104 -4 163 27 80 36 88 66 60 36 -34 53 -72 53 -120
0 -29 12 -68 34 -115 46 -96 92 -122 143 -79 37 31 141 96 153 96 19 0 62 71
68 115 l7 45 28 -25 c21 -20 36 -25 64 -23 31 2 43 11 71 48 72 96 122 136
122 96 0 -20 25 -37 44 -30 9 4 16 18 16 34 0 54 9 61 41 29 17 -16 44 -30 66
-34 21 -3 61 -10 88 -16 92 -18 112 -16 112 14 1 72 -4 70 66 34 34 -18 69
-31 77 -31 8 1 20 2 26 3 6 0 24 13 39 27 15 14 73 48 129 74 113 54 133 69
161 120 11 19 24 39 28 45 4 5 30 44 57 85 81 124 217 276 266 296 18 7 42 27
53 42 17 24 30 30 71 34 51 5 100 36 100 64 0 7 11 26 25 42 14 17 25 35 25
41 0 6 15 11 34 11 27 0 44 9 78 43 56 54 98 120 98 151 0 35 -21 78 -48 99
-32 26 -15 49 39 54 24 3 58 13 74 23 92 57 156 88 208 99 45 10 62 19 80 44
29 42 46 68 54 87 9 22 75 114 88 122 5 4 9 33 9 65 -2 51 2 62 27 91 16 18
30 38 30 45 1 7 2 19 3 27 0 8 -6 35 -15 60 -20 57 -12 96 26 125 28 22 33 22
63 10 23 -10 34 -23 38 -44 8 -37 60 -101 84 -101 25 0 37 18 45 70 4 25 13
70 21 100 28 109 12 280 -26 280 -6 0 -10 6 -10 13 -1 6 -17 24 -36 39 l-35
26 36 25 c19 13 54 41 76 62 35 32 40 42 36 69 -9 52 -26 86 -43 86 -9 0 -50
12 -91 27 -58 20 -77 32 -84 52 -21 54 44 59 132 10 23 -13 47 -33 53 -44 15
-28 27 -35 59 -35 20 0 30 7 37 26 6 14 21 40 35 58 19 25 26 46 26 87 1 30 6
57 11 60 6 4 12 36 15 72 5 57 3 69 -16 93 -29 37 -27 48 19 68 69 30 222 203
245 277 9 27 95 205 130 270 14 25 28 69 32 98 6 49 7 51 44 61 27 7 45 7 63
-1 22 -11 31 -8 66 16 61 42 64 48 61 124 -1 28 -11 44 -50 82 l-50 48 32 20
c18 11 40 29 49 40 27 32 58 98 58 124 0 58 -41 130 -85 147 -17 7 -12 12 35
33 60 27 120 80 120 106 0 9 7 25 15 35 20 27 19 70 -2 88 -46 40 -119 61
-166 47 l-31 -9 38 37 c39 38 64 79 60 101 -1 6 -2 28 -3 47 -1 27 -7 38 -23
45 -13 5 -33 19 -45 32 -11 13 -42 35 -68 48 -26 13 -53 33 -60 43 -20 29 -66
57 -93 57 -13 0 -31 7 -39 16 -16 16 -32 16 -113 -1 -131 -26 -320 -50 -320
-40 0 7 59 36 81 40 11 2 34 11 51 20 17 8 35 15 40 15 27 0 94 61 130 119
124 203 133 214 216 267 56 36 86 76 103 138 9 33 7 44 -13 83 -15 29 -37 52
-62 66 -22 12 -52 33 -67 47 l-27 24 18 37 c30 59 19 76 -66 101 -75 22 -92
34 -51 34 72 2 188 49 208 85 24 45 -10 100 -81 133 -20 9 -59 43 -88 75 -28
33 -96 90 -149 127 -54 37 -100 71 -103 75 -3 4 -24 18 -46 31 -64 36 -100 71
-140 134 -21 33 -41 61 -46 62 -4 2 -8 12 -8 23 0 10 -4 19 -10 19 -5 0 -10 7
-10 15 0 8 -4 15 -8 15 -5 0 -17 17 -28 37 -10 21 -31 58 -46 84 -45 74 -76
171 -93 281 -21 140 -40 190 -97 249 -61 62 -132 98 -316 158 -147 49 -247 98
-289 143 -28 30 -41 90 -32 153 4 28 10 75 14 105 18 155 68 261 178 380 111
120 120 140 123 265 1 55 2 104 3 109 1 5 24 -21 51 -57 76 -100 106 -101 185
-5 77 93 118 143 139 168 10 13 22 36 27 52 8 31 -3 78 -20 78 -20 0 -20 34 0
66 19 32 31 39 54 34 16 -3 116 31 170 58 80 40 106 62 125 106 9 22 29 53 42
67 25 27 25 27 85 13 32 -7 78 -20 101 -28 61 -22 94 -11 150 48 48 51 49 54
56 131 4 44 17 110 28 148 22 75 19 106 -15 138 -20 19 -30 21 -102 15 -44 -3
-91 -8 -105 -11 -92 -21 -136 -24 -270 -20 -83 3 -158 8 -166 13 -9 5 -21 20
-27 33 -24 49 -148 81 -305 80 -111 0 -169 -43 -281 -206 -146 -214 -206 -286
-277 -335 -37 -26 -48 -29 -120 -27 -79 2 -80 2 -118 41 -35 37 -38 43 -32 82
3 26 -1 63 -10 95 -18 59 -14 121 11 169 26 51 19 85 -27 133 -24 25 -54 50
-68 57 -33 17 -95 14 -131 -7 -25 -15 -33 -16 -62 -4 -65 27 -93 25 -149 -10
-29 -18 -65 -32 -79 -32 -42 -1 -87 23 -93 48 -3 13 -29 48 -56 78 -168 182
-178 254 -60 411 37 48 96 104 110 103 3 0 14 5 26 11 30 16 67 22 174 28 52
3 106 7 119 10 42 9 87 66 110 142 28 92 56 140 127 215 70 73 114 135 141
198 12 28 37 58 64 79 48 37 83 71 144 144 22 26 45 53 50 59 17 20 85 125 85
132 0 17 58 78 89 95 20 10 83 57 141 105 58 47 136 102 174 122 l70 35 75
-22 c42 -12 90 -24 106 -27 96 -14 123 -37 128 -113 4 -46 -2 -71 -34 -153
-54 -135 -81 -185 -129 -235 -22 -24 -49 -60 -59 -80 -11 -20 -33 -52 -49 -70
-39 -43 -36 -73 15 -153 62 -98 73 -121 69 -153 -2 -17 -4 -38 -5 -47 -1 -16
-35 -53 -124 -136 -66 -62 -87 -111 -84 -205 2 -57 7 -81 20 -96 41 -45 90
-30 163 49 27 30 97 101 155 159 59 58 109 114 113 125 3 11 20 36 37 55 18
19 48 60 67 90 53 84 88 116 156 141 103 39 214 113 298 201 40 42 104 68 168
68 63 0 89 13 169 85 52 47 131 145 131 163 0 4 25 50 55 101 30 51 55 96 55
100 1 10 34 47 52 57 9 5 67 56 128 114 119 112 168 157 221 205 19 17 50 50
69 75 19 24 52 64 73 89 22 27 44 69 53 102 10 37 38 87 84 150 122 167 167
225 192 248 20 17 48 23 48 10 0 -11 82 -137 106 -164 11 -12 34 -22 57 -24
32 -2 42 2 65 30 75 90 113 104 179 69 35 -18 92 -26 149 -21 23 2 83 64 98
102 27 66 22 85 -45 157 -87 96 -88 100 -44 158 42 54 68 66 131 57 35 -4 51
-1 86 20 54 33 177 151 250 244 91 113 116 170 130 298 12 105 14 110 40 119
22 8 34 5 67 -17 36 -24 111 -123 111 -146 0 -13 56 -31 80 -26 45 9 56 27 59
95 2 54 10 81 49 160 25 52 66 123 89 156 52 75 55 114 16 209 l-26 65 16 69
c19 78 21 128 7 186 -35 145 -52 244 -56 340 -7 145 -16 173 -63 192 -46 19
-81 51 -81 75 0 10 24 42 53 71 49 47 115 162 141 245 4 11 17 27 29 35 32 21
151 -1 237 -44 58 -30 74 -33 150 -34 104 0 142 14 179 69 62 92 83 223 60
379 -19 128 -16 162 19 242 32 74 38 105 47 255 4 52 13 126 22 165 12 56 14
94 7 190 -4 66 -8 163 -9 216 l0 97 59 87 c113 166 114 228 8 345 l-50 54 29
34 c25 28 31 42 31 72 1 3 -2 23 -6 46 -5 37 -2 46 34 94 36 48 39 58 36 104
-3 53 -35 120 -62 130 -52 20 -131 -39 -195 -146 -42 -71 -80 -122 -119 -163
-11 -11 -75 -49 -142 -85 -101 -54 -136 -79 -203 -145 -44 -44 -98 -102 -120
-129 -80 -98 -133 -144 -188 -161 -29 -9 -75 -29 -102 -45 -28 -16 -66 -37
-85 -46 -47 -22 -107 -64 -157 -110 -70 -65 -97 -84 -131 -93 -45 -13 -71 -2
-133 56 -57 53 -77 86 -83 137 -5 38 -21 70 -66 131 -16 22 -29 46 -30 52 0 7
-13 42 -30 78 -17 38 -30 82 -30 106 0 39 -19 80 -50 109 -9 8 -36 39 -60 69
-65 79 -85 84 -220 57 -31 -6 -59 18 -80 69 -16 39 -30 57 -56 71 -19 10 -34
22 -34 26 0 5 -18 8 -40 8 -43 0 -84 -18 -160 -69 -25 -17 -55 -31 -68 -31
-14 0 -46 23 -88 64 -35 36 -79 72 -96 80 -63 32 -133 15 -201 -47 -22 -20
-46 -34 -55 -32 -10 1 -40 6 -67 9 -47 7 -53 11 -80 54 -17 26 -43 62 -59 80
-17 19 -32 52 -37 79 -10 52 -39 118 -79 178 -38 57 -49 92 -54 161 -4 50 -13
75 -55 148 -28 49 -65 105 -83 125 -18 20 -55 63 -83 96 -27 32 -57 66 -66 74
-40 38 -59 86 -59 147 0 72 -30 127 -105 189 -146 122 -173 148 -203 198 -18
30 -46 89 -62 131 -48 129 -101 201 -210 284 -50 38 -73 49 -146 66 -62 15
-132 3 -249 -44 l-80 -33 -20 29 c-11 15 -36 45 -56 67 -32 34 -43 40 -78 40
-28 0 -51 -8 -75 -27 -45 -34 -65 -33 -111 8 -107 95 -289 76 -553 -58 -129
-66 -258 -118 -332 -136 -86 -20 -128 -38 -203 -86 -76 -49 -185 -134 -231
-180 -43 -43 -93 -124 -106 -174 -19 -70 -7 -104 53 -150 99 -76 158 -133 197
-193 34 -51 40 -67 40 -114 0 -85 -25 -119 -160 -215 -62 -44 -85 -74 -111
-143 -19 -51 -21 -85 -9 -136 12 -47 11 -52 -15 -91 -16 -23 -48 -63 -72 -89
-50 -54 -65 -107 -43 -158 10 -26 9 -34 -7 -58 -46 -65 -47 -88 -11 -207 19
-60 20 -73 8 -105 -19 -53 -47 -89 -94 -118 -22 -14 -76 -60 -118 -101 -82
-80 -147 -129 -186 -139 -13 -3 -74 2 -135 11 -128 18 -348 16 -412 -4 -63
-19 -101 -69 -259 -333 -21 -35 -24 -95 -9 -170 8 -38 6 -58 -9 -104 -11 -32
-28 -69 -37 -83 -40 -58 -46 -88 -26 -145 16 -49 16 -56 2 -101 -20 -62 -30
-133 -30 -205 1 -82 10 -120 37 -151 27 -32 99 -67 137 -68 27 0 97 41 142 83
38 37 65 50 116 57 39 6 64 3 134 -15 166 -45 189 -41 302 50 102 84 141 99
250 99 71 -1 107 -6 170 -28 170 -57 186 -70 295 -232 30 -46 90 -119 133
-164 43 -45 84 -95 93 -111 21 -42 20 -112 -2 -141 -51 -68 -118 -81 -211 -40
-90 39 -174 29 -343 -41 -51 -21 -145 -48 -233 -65 -202 -41 -297 -90 -477
-246 -20 -17 -51 -42 -70 -56 -95 -70 -140 -126 -140 -176 0 -47 -22 -121 -43
-146 -12 -15 -42 -52 -66 -83 -32 -42 -57 -63 -100 -82 -104 -47 -175 -73
-199 -73 -51 0 -139 -35 -217 -85 -85 -55 -145 -115 -228 -228 -92 -125 -172
-186 -247 -189 -93 -4 -137 11 -360 121 -136 66 -333 118 -384 101 -52 -17
-119 -81 -154 -148 -25 -47 -32 -72 -32 -117 0 -48 -7 -70 -44 -140 -62 -118
-57 -167 26 -260 114 -129 188 -248 188 -302 0 -34 -66 -76 -173 -111 -195
-63 -240 -102 -330 -284 -78 -158 -118 -196 -257 -241 -58 -19 -132 -43 -165
-52 -153 -43 -222 -70 -257 -98 l-38 -30 -222 -2 c-123 -2 -254 -5 -293 -9
-38 -4 -152 -11 -253 -15 -193 -10 -213 -15 -257 -67 -15 -17 -48 -31 -119
-49 -97 -25 -169 -54 -256 -104 -25 -15 -81 -42 -125 -60 -44 -19 -92 -43
-107 -53 -25 -17 -152 -79 -232 -112 -21 -9 -59 -16 -83 -16 -41 0 -49 5 -95
52 -28 29 -57 63 -65 75 -8 12 -36 35 -61 50 -43 26 -53 28 -107 22 -76 -9
-98 -14 -160 -38 -76 -29 -136 -45 -157 -44 -25 2 -148 71 -148 84 0 15 -81
99 -109 113 -15 8 -33 12 -42 11 -14 -2 -16 5 -12 44 2 25 8 55 13 66 5 11 11
49 15 85 4 36 8 72 9 80 2 8 7 38 11 65 5 28 8 54 6 59 -1 6 2 19 8 30 5 12
12 44 14 71 3 28 7 64 10 80 6 33 21 141 22 165 1 8 5 29 9 45 3 17 9 46 11
65 4 30 9 65 30 200 2 14 7 41 11 60 4 19 8 49 10 65 3 37 13 100 20 140 3 17
8 46 10 65 3 19 8 46 11 60 4 14 7 36 8 50 1 14 5 45 9 69 5 24 10 60 12 80 4
40 20 145 27 176 3 11 8 49 13 85 4 36 8 67 9 70 1 3 5 32 9 65 5 33 11 69 13
80 6 27 23 133 27 170 2 17 7 47 11 68 7 38 11 64 21 152 4 28 9 55 13 60 4 6
9 31 10 58 2 36 -1 47 -13 47 -8 0 -18 -9 -21 -20 -5 -16 -10 -18 -24 -10 -12
6 -22 5 -31 -3 -9 -8 -11 -9 -6 0 3 6 0 14 -6 16 -7 3 4 4 25 3 28 -2 36 1 33
11 -3 7 -2 12 2 12 28 -4 52 2 46 13 -4 7 -3 8 5 4 6 -4 9 -13 5 -19 -3 -7 1
-4 9 5 8 10 16 16 18 13 11 -10 64 -13 75 -4 7 6 18 8 24 4 5 -3 10 2 10 14 0
11 4 23 10 26 5 3 8 0 5 -7 -9 -23 39 -37 74 -22 17 7 31 16 31 19 0 3 -5 3
-12 -1 -6 -4 -8 -3 -5 3 7 12 57 10 77 -2 9 -5 11 -4 6 3 -4 7 -2 12 4 12 6 0
9 4 6 9 -3 5 2 15 12 22 15 13 16 12 4 -3 -11 -14 -10 -18 7 -27 23 -13 34 -1
25 26 -6 16 -5 16 10 -2 10 -11 15 -14 11 -7 -3 6 -2 12 3 12 6 0 12 -7 16
-15 6 -17 36 -20 36 -4 0 8 5 8 15 -1 21 -17 19 -5 -2 16 -17 17 -17 18 2 10
34 -13 56 -15 50 -5 -4 5 -11 6 -17 3 -7 -5 -8 -2 -4 5 5 7 10 10 13 8 2 -3
18 -1 35 3 25 8 28 7 18 -5 -7 -8 -17 -12 -23 -8 -6 3 -7 1 -3 -5 5 -9 13 -8
29 3 12 8 27 15 32 16 6 0 9 6 7 12 -2 6 5 4 14 -4 16 -13 16 -12 6 7 -7 13
-7 25 -1 35 8 11 9 10 7 -5 -2 -12 4 -20 15 -21 9 -2 15 1 12 5 -3 5 -1 12 5
15 6 4 9 1 8 -6 -2 -6 3 -14 11 -17 9 -3 12 0 9 10 -4 9 0 15 8 15 8 0 12 -9
10 -21 -2 -12 -1 -15 1 -8 3 9 8 10 17 2 10 -8 12 -5 9 13 -4 22 -2 24 40 23
25 -1 45 1 45 4 -2 21 4 30 14 24 6 -4 26 -8 45 -10 31 -2 38 4 34 31 -1 6 4
3 11 -5 7 -8 20 -16 28 -18 10 -3 9 3 -5 20 -15 17 -16 19 -3 9 23 -17 52 -7
44 15 -5 14 -4 15 9 4 13 -11 14 -10 8 6 -7 18 -6 18 20 1 31 -20 37 -21 37
-6 0 5 -5 7 -12 3 -7 -4 -8 -3 -4 4 5 9 15 7 34 -5 20 -13 24 -14 15 -3 -9 12
-8 20 4 35 15 20 15 20 9 -1 -5 -17 -2 -20 21 -18 16 1 37 6 47 10 14 5 17 4
11 -5 -6 -10 -3 -11 14 -2 23 13 29 23 8 16 -6 -3 -18 4 -25 15 -7 12 -8 20
-2 20 5 0 10 -4 10 -8 0 -11 40 -9 58 1 6 5 17 5 24 1 6 -4 8 -3 4 4 -3 5 -3
12 1 15 5 2 2 2 -5 1 -9 -3 -10 1 -2 16 6 11 13 20 16 20 3 0 2 -5 -2 -12 -5
-8 -2 -9 10 -5 10 4 24 7 32 7 9 0 12 5 8 12 -4 7 7 2 24 -11 22 -15 30 -18
26 -7 -3 8 0 23 6 33 10 16 11 16 6 1 -3 -10 -1 -20 4 -23 6 -4 10 1 10 9 0 9
4 16 10 16 5 0 7 -8 4 -17 -5 -15 -4 -16 5 -3 6 9 7 18 1 24 -6 6 -10 15 -10
20 0 7 3 8 8 1 4 -5 14 -16 23 -23 14 -11 16 -9 13 14 -1 14 0 23 3 20 4 -3
13 0 21 7 13 10 15 9 10 -5 -9 -23 17 -17 41 11 12 13 22 18 26 11 3 -5 1 -10
-4 -10 -6 0 -11 -4 -11 -9 0 -5 10 -8 23 -7 13 0 24 6 24 13 0 7 -5 9 -11 6
-7 -3 -6 -1 1 7 13 15 36 4 27 -13 -5 -8 -3 -8 6 0 18 17 22 43 5 37 -7 -3
-15 2 -19 12 -5 13 -4 14 7 6 10 -9 16 -9 25 0 13 13 80 17 103 6 13 -6 16 -2
13 18 -1 14 0 23 3 20 3 -3 12 1 20 9 8 8 23 15 34 15 11 0 22 6 25 14 5 12 8
12 23 -2 10 -9 16 -20 14 -24 -2 -5 1 -8 7 -8 6 0 10 6 8 13 -1 6 4 23 11 36
11 19 11 22 -1 16 -7 -5 -10 -4 -5 0 15 17 81 35 88 24 4 -7 9 -4 13 6 9 24 7
32 -4 15 -5 -8 -10 -10 -10 -4 0 6 3 13 6 17 9 8 35 -4 29 -13 -3 -5 7 -7 22
-6 21 3 28 9 27 24 0 15 5 19 23 17 16 -1 22 2 19 10 -3 8 4 10 18 8 13 -3 30
3 39 12 10 9 17 14 17 11 0 -3 16 3 35 14 20 11 42 20 51 20 9 0 12 5 8 12 -4
6 -3 8 4 4 6 -3 17 1 25 9 9 8 20 15 25 15 6 0 12 4 14 8 6 15 80 52 90 45 8
-4 9 0 5 11 -6 14 -3 17 8 12 9 -3 18 1 21 9 3 7 18 17 34 20 16 3 34 13 41
21 6 8 28 22 48 31 20 9 40 23 44 30 4 7 15 13 23 13 8 0 17 7 20 15 4 8 10
13 14 10 4 -3 13 2 20 10 7 8 19 15 26 15 8 0 14 5 14 10 0 6 7 10 15 10 8 0
15 5 15 11 0 5 5 7 10 4 6 -3 10 -2 10 2 0 5 19 21 43 36 45 29 79 62 71 70
-3 3 3 4 13 4 10 -1 17 4 15 11 -1 6 1 11 5 11 19 -3 33 2 33 12 0 5 -6 7 -12
3 -8 -4 -10 -3 -5 2 5 5 12 9 15 10 14 2 57 23 48 23 -5 1 1 9 12 20 12 10 19
21 15 25 -3 3 3 6 14 6 12 0 23 8 26 20 3 13 11 18 25 15 14 -2 19 1 16 9 -3
7 4 21 16 31 11 10 20 15 20 11 0 -4 6 -1 14 6 8 7 11 17 8 22 -3 5 2 6 12 3
10 -4 15 -3 11 3 -3 5 3 14 14 19 14 8 21 8 24 -2 4 -9 6 -9 6 1 1 7 5 11 10
8 4 -3 7 6 5 19 -1 14 2 23 7 19 5 -3 6 -11 2 -17 -5 -8 -2 -8 9 0 8 7 19 9
24 5 4 -4 3 0 -4 9 -10 13 -9 19 3 29 8 7 13 15 10 19 -2 4 6 7 18 7 15 -1 22
5 21 16 -1 10 1 17 5 16 28 -3 42 4 37 18 -4 10 -2 13 6 8 8 -5 9 -2 5 9 -4
11 -1 17 7 17 7 0 19 7 26 15 11 13 10 14 -6 9 -10 -4 -16 -4 -13 0 10 11 50
16 44 5 -12 -18 4 -9 32 20 16 15 27 33 26 38 -2 6 3 16 12 23 12 10 18 11 28
1 9 -10 8 -11 -4 -6 -10 4 -20 2 -24 -4 -4 -7 2 -10 16 -8 15 3 23 11 24 26 2
24 45 71 45 49 0 -9 3 -9 10 2 9 13 11 13 21 0 9 -13 10 -12 5 3 -3 10 -6 21
-6 23 0 3 -5 2 -12 -2 -7 -4 -8 -3 -4 5 4 6 11 9 15 7 4 -3 18 8 30 24 12 17
29 30 38 30 9 0 13 3 10 7 -11 10 14 33 37 33 16 0 18 2 7 9 -11 7 -9 10 7 15
11 4 23 13 26 21 3 8 13 15 22 15 10 0 14 5 11 14 -4 10 -1 13 7 10 7 -3 19 2
26 11 11 13 10 14 -6 8 -11 -4 -3 8 17 28 21 19 40 44 44 57 8 28 25 29 20 0
-3 -13 -1 -18 5 -12 4 5 10 25 13 44 3 27 8 34 22 32 13 -3 16 1 12 12 -6 14
-3 15 16 5 20 -11 21 -11 8 5 -12 14 -12 16 3 10 9 -3 16 -2 16 4 0 6 18 29
41 51 22 23 38 45 35 50 -3 5 1 12 10 15 9 3 14 13 11 21 -4 10 -1 12 10 8 10
-4 14 -2 9 5 -3 6 -2 13 4 17 6 4 7 11 4 17 -5 7 2 9 20 6 30 -6 31 -5 10 16
-14 15 -14 16 0 16 9 0 15 6 14 13 -2 6 2 11 9 10 7 -2 10 3 7 11 -3 8 0 17 7
22 8 4 10 3 5 -4 -10 -17 3 -15 20 3 10 10 11 15 3 15 -9 0 -8 4 1 15 14 16
31 20 28 6 -2 -5 1 -10 6 -10 6 -1 11 5 12 14 1 8 -3 15 -10 15 -14 0 -19 37
-5 45 5 4 6 -2 2 -11 -4 -12 -3 -15 6 -10 7 5 11 17 8 27 -3 11 -1 17 4 13 8
-5 13 10 10 29 -1 5 3 6 9 2 15 -9 42 15 36 32 -3 8 -1 11 4 8 16 -10 11 17
-5 29 -13 9 -10 11 15 13 21 2 29 -1 25 -10 -4 -7 0 -4 8 5 8 10 16 15 19 12
3 -2 8 2 12 11 4 13 2 14 -14 5 -11 -6 -20 -7 -20 -2 0 5 11 14 24 20 18 8 24
18 22 36 -3 21 1 26 18 27 20 0 20 1 2 8 -18 7 -18 8 -2 14 9 4 14 11 11 17
-3 5 -2 10 4 10 5 0 12 -6 14 -12 4 -10 6 -10 6 0 1 7 6 10 11 7 6 -3 10 -1
10 4 0 6 -7 11 -16 11 -13 0 -14 3 -4 15 7 8 10 21 7 29 -4 10 0 14 13 11 11
-2 22 1 26 6 3 5 2 9 -3 8 -20 -3 -24 2 -11 16 33 37 39 46 32 57 -5 7 -2 9 7
6 10 -4 14 3 16 20 0 15 6 28 12 30 6 2 9 8 5 13 -3 5 0 9 6 9 6 0 8 5 5 10
-3 6 0 10 8 10 8 0 14 8 13 18 0 10 6 17 15 16 13 -1 16 5 12 28 -3 22 -1 28
8 22 9 -5 10 -2 5 11 -6 18 -6 18 15 -1 l22 -19 -14 23 c-12 19 -12 24 0 31
11 7 11 9 0 14 -11 4 -11 6 -1 6 7 1 10 6 6 13 -5 8 -2 9 11 4 15 -5 16 -4 6
8 -14 17 1 56 22 56 7 0 8 3 2 8 -13 9 -18 32 -7 32 5 0 9 6 10 13 8 59 21 89
36 80 7 -4 6 -1 -2 9 -10 12 -10 18 2 27 8 7 13 23 11 37 -2 20 0 22 12 13 11
-9 12 -8 7 5 -4 10 -1 16 7 16 11 0 11 3 -1 10 -12 8 -13 11 -1 19 10 6 10 10
1 16 -8 5 -6 11 7 22 10 8 12 11 4 7 -11 -6 -13 -2 -7 17 5 13 9 34 10 46 2
13 6 26 9 30 4 3 7 17 7 30 0 16 4 22 12 17 6 -4 8 -3 5 3 -3 5 -2 34 4 64 5
30 12 72 15 94 4 22 11 43 16 46 14 9 12 20 -4 30 -9 6 -10 9 -1 9 8 0 11 11
9 30 -2 17 1 30 6 30 5 0 6 5 2 11 -3 6 -6 51 -5 99 1 53 -2 91 -9 95 -5 3
-10 11 -10 16 0 6 5 7 11 3 8 -4 8 0 0 15 -9 16 -9 21 1 21 8 0 9 3 3 8 -14
10 -18 29 -19 79 -1 24 -4 43 -7 43 -6 0 -8 10 -11 55 -1 14 -5 25 -8 25 -4 0
-7 6 -8 13 -2 24 -9 62 -15 77 -3 8 -7 24 -9 35 -2 11 -6 22 -10 25 -4 3 -9
23 -12 45 -2 22 -5 42 -6 45 -2 3 -2 8 -1 13 0 4 -3 7 -9 7 -5 0 -7 6 -4 14 3
8 1 17 -5 21 -6 3 -11 16 -11 29 0 12 -9 32 -20 43 -14 15 -16 23 -7 26 9 4 9
6 -1 6 -7 1 -11 5 -7 10 3 5 -1 15 -8 23 -7 7 -19 33 -27 57 -8 24 -20 46 -28
48 -11 5 -11 7 0 14 10 7 9 9 -4 9 -10 0 -18 5 -18 11 0 5 6 7 13 4 6 -4 2 2
-10 13 -12 11 -19 22 -16 26 4 3 0 6 -7 6 -7 0 -11 3 -7 6 3 3 -3 15 -14 27
-10 11 -19 28 -18 36 0 11 3 9 9 -5 5 -12 13 -25 19 -28 5 -4 3 7 -5 23 -10
19 -20 28 -29 24 -9 -3 -15 1 -15 11 0 9 -5 16 -12 16 -6 0 -8 3 -5 6 4 4 13
1 22 -6 8 -7 15 -9 15 -5 0 4 -11 16 -25 27 -14 11 -33 34 -41 51 -9 17 -22
37 -28 44 -31 35 -41 48 -40 53 4 17 -51 82 -61 72 -5 -4 -5 -2 -1 5 8 14 -23
55 -36 47 -5 -3 -7 0 -6 8 2 7 -5 12 -14 12 -10 -1 -16 2 -13 6 3 5 -2 16 -11
24 -8 9 -13 16 -10 16 3 0 -11 16 -33 35 -21 19 -43 35 -49 35 -5 0 -12 6 -15
13 -3 6 -22 21 -43 32 -22 10 -47 26 -56 34 -10 8 -18 10 -18 5 0 -5 -4 -4 -8
2 -10 16 -184 104 -206 104 -9 0 -19 7 -22 15 -4 8 -10 13 -14 10 -4 -3 -19 4
-32 15 -14 11 -29 16 -32 12 -4 -4 -13 0 -19 8 -7 8 -21 17 -32 18 -11 2 -28
11 -37 19 -10 9 -18 12 -18 8 0 -5 -7 0 -16 11 -8 10 -13 13 -9 7 10 -21 -9
-15 -25 7 -10 14 -16 16 -22 7 -6 -9 -8 -9 -8 1 0 6 -7 12 -16 12 -9 0 -12 5
-8 13 6 10 4 10 -7 0 -16 -15 -33 -17 -24 -3 3 6 -1 10 -10 10 -9 0 -14 4 -11
8 3 5 -1 9 -9 9 -8 0 -11 -5 -8 -10 3 -5 0 -7 -8 -5 -8 3 -12 13 -11 23 3 16
1 17 -12 6 -11 -9 -16 -10 -16 -2 0 6 -5 11 -11 11 -5 0 -8 -4 -5 -8 3 -5 -1
-9 -8 -9 -8 0 -12 9 -10 21 3 12 2 15 -2 9 -3 -7 -10 -13 -15 -13 -6 0 -7 5
-3 12 5 8 2 9 -10 5 -10 -4 -19 -1 -22 8 -4 8 -17 15 -31 15 -17 0 -22 4 -17
13 5 7 0 6 -11 -3 -11 -9 -16 -10 -11 -2 4 7 1 12 -8 12 -9 0 -16 5 -16 12 0
6 -3 8 -6 5 -4 -4 -1 -15 7 -24 13 -16 12 -17 -3 -5 -10 8 -23 10 -30 6 -10
-6 -10 -4 0 9 12 14 11 16 -6 12 -11 -2 -23 3 -26 11 -3 8 -19 14 -41 14 -24
0 -35 5 -35 14 0 8 -4 17 -9 20 -5 4 -7 -4 -4 -16 4 -22 4 -22 -10 1 -8 14
-21 26 -28 27 -8 1 -23 5 -34 9 -16 6 -17 5 -5 -4 12 -9 11 -11 -8 -11 -13 0
-20 4 -17 10 3 6 1 10 -5 10 -6 0 -8 5 -5 10 9 14 -18 12 -34 -2 -11 -10 -13
-10 -7 0 5 8 -1 12 -19 12 -15 0 -24 4 -20 10 5 9 -15 15 -37 11 -5 0 -8 5 -8
12 0 8 -4 7 -10 -3 -7 -11 -12 -12 -18 -3 -4 6 -21 13 -37 15 -18 2 -29 8 -27
16 2 9 -3 10 -15 4 -21 -11 -44 -5 -59 16 -10 13 -12 13 -21 -2 -9 -17 -11
-17 -16 -2 -4 10 -3 15 3 11 6 -3 10 -2 10 3 0 6 -7 13 -16 16 -8 3 -12 2 -9
-4 3 -5 -4 -8 -15 -7 -10 1 -22 8 -25 15 -4 11 -8 12 -20 2 -10 -9 -15 -9 -15
-1 0 6 -5 11 -11 11 -5 0 -8 -4 -4 -9 3 -6 -4 -8 -15 -6 -28 5 -41 15 -35 25
3 4 -2 11 -11 14 -8 3 -12 2 -9 -4 3 -6 1 -10 -4 -10 -6 0 -11 6 -12 13 0 6
-4 3 -9 -8 -7 -17 -9 -17 -9 -3 -1 12 -6 15 -18 11 -10 -4 -14 -2 -9 5 3 6 1
14 -5 18 -7 4 -9 3 -5 -4 3 -6 2 -13 -3 -16 -5 -3 -11 0 -14 7 -3 9 -16 12
-36 9 -17 -2 -31 0 -31 4 0 17 -38 35 -46 22 -5 -7 -3 -8 6 -3 9 6 11 4 5 -5
-6 -9 -4 -11 5 -5 9 5 11 4 6 -4 -8 -12 -30 -1 -47 23 -4 4 -10 3 -14 -3 -5
-9 -10 -9 -21 0 -11 9 -14 8 -14 -2 0 -7 -11 2 -24 20 -13 18 -27 28 -30 23
-9 -15 -45 -21 -53 -10 -3 6 -1 8 5 4 6 -3 13 -2 16 3 9 13 -19 7 -38 -8 -14
-12 -16 -11 -16 5 0 17 -7 19 -52 17 -37 -2 -48 0 -38 7 9 6 10 10 3 10 -6 0
-15 -4 -18 -10 -3 -5 -11 -10 -16 -10 -6 0 -8 4 -5 9 3 5 -1 12 -10 15 -8 3
-13 2 -10 -3 3 -4 -8 -8 -23 -7 -21 1 -27 4 -20 13 7 8 5 10 -10 6 -12 -3 -18
-10 -14 -16 4 -6 1 -7 -6 -3 -7 5 -10 14 -7 21 3 8 -2 11 -14 8 -10 -3 -36 1
-57 8 -42 13 -48 13 -48 0 0 -5 -3 -12 -7 -16 -3 -4 -5 0 -4 9 1 9 8 22 14 28
7 7 12 23 12 37 0 13 7 33 17 43 9 10 18 33 20 50 2 18 7 34 12 37 5 4 12 22
16 41 4 19 19 52 32 73 13 21 22 45 19 52 -3 8 2 19 10 25 8 7 14 20 14 30 0
15 17 59 41 102 5 10 9 24 9 32 0 7 6 18 13 24 7 6 14 23 15 39 1 15 9 33 18
40 9 6 13 16 10 22 -4 5 8 41 26 78 18 37 31 72 30 77 -4 13 20 69 32 78 6 4
11 19 12 34 0 16 6 30 13 32 6 2 11 12 11 23 0 11 7 22 15 25 11 4 12 11 5 24
-7 13 -4 22 11 36 13 12 18 26 15 40 -4 13 2 31 14 47 11 14 20 32 20 41 0 9
7 19 15 22 10 4 13 14 9 28 -3 14 4 35 20 59 14 20 23 37 20 37 -2 0 2 13 10
29 8 15 17 39 19 52 3 13 16 45 30 71 14 26 24 56 23 65 -2 10 7 31 20 46 13
16 22 33 19 37 -3 5 -1 11 5 15 5 3 10 24 10 45 0 21 7 45 15 54 8 8 15 22 15
30 0 9 5 16 10 16 6 0 10 9 10 19 0 11 5 23 10 26 6 4 8 10 6 14 -3 4 13 43
34 86 22 43 40 90 40 105 0 15 7 33 15 40 8 7 13 16 10 20 -3 5 -1 11 5 15 5
3 10 19 10 36 0 16 5 29 10 29 12 0 30 41 37 85 3 17 11 34 19 38 8 4 14 19
14 32 0 14 5 25 11 25 6 0 8 7 5 16 -3 8 3 25 14 36 11 13 20 36 20 54 0 18 4
34 10 36 5 2 24 44 41 93 18 50 40 102 51 117 10 14 18 34 18 45 0 10 7 26 14
36 8 10 11 27 9 38 -3 12 -2 24 3 28 15 10 35 61 29 72 -4 5 -1 9 4 9 6 0 11
7 11 15 0 8 5 15 10 15 6 0 10 7 10 15 0 18 -41 20 -58 3 -9 -9 -12 -9 -12 -1
0 7 -9 10 -22 6 -13 -2 -65 -5 -115 -6 -51 -1 -93 -4 -93 -7 0 -11 -75 -5 -88
7 -8 8 -21 9 -34 4 -12 -4 -37 -5 -55 -1 -19 5 -36 4 -39 -2 -4 -5 -10 -5 -18
1 -6 5 -33 9 -59 7 -27 -1 -50 1 -53 6 -3 4 -29 7 -57 6 -37 -2 -51 1 -49 10
3 15 -34 16 -44 0 -5 -8 -11 -6 -20 6 -9 13 -20 16 -42 11 -17 -3 -33 -2 -36
3 -3 5 -23 13 -43 17 -21 4 -43 11 -48 15 -6 5 -19 8 -30 6 -11 -2 -28 5 -39
16 -11 10 -27 18 -35 19 -84 5 -104 8 -110 15 -7 10 -63 33 -98 41 -13 3 -23
12 -23 20 0 8 -4 12 -8 9 -5 -3 -21 2 -36 10 -16 7 -33 14 -38 14 -6 0 -21 11
-34 25 -13 14 -30 25 -39 25 -8 0 -15 4 -15 9 0 14 -48 10 -61 -5z m-1232
-3283 c0 -11 -5 -18 -9 -15 -4 3 -5 11 -1 19 7 21 12 19 10 -4z m1576 -56 c-3
-9 -8 -14 -10 -11 -3 3 -2 9 2 15 9 16 15 13 8 -4z m-1602 -28 c-10 -9 -11 -8
-5 6 3 10 9 15 12 12 3 -3 0 -11 -7 -18z m1944 4 c3 -5 0 -13 -6 -17 -8 -5 -9
-3 -4 6 6 10 4 12 -9 7 -10 -4 -15 -3 -11 3 8 13 22 13 30 1z m-364 -24 c-10
-9 -11 -8 -5 6 3 10 9 15 12 12 3 -3 0 -11 -7 -18z m498 9 c9 -11 9 -16 -1
-22 -7 -4 -10 -4 -6 1 4 4 0 14 -10 21 -9 7 -12 14 -6 14 6 0 17 -6 23 -14z
m-2089 -21 c0 -8 -4 -15 -8 -15 -5 0 -9 7 -9 15 0 8 4 15 9 15 4 0 8 -7 8 -15z
m0 -36 c0 -4 -4 -11 -10 -14 -5 -3 -10 -1 -10 5 0 6 -5 8 -12 4 -6 -4 -8 -3
-5 3 7 11 37 13 37 2z m-27 -69 c-3 -12 -8 -19 -11 -16 -5 6 5 36 12 36 2 0 2
-9 -1 -20z m2547 -10 c0 -5 -5 -10 -11 -10 -5 0 -7 5 -4 10 3 6 8 10 11 10 2
0 4 -4 4 -10z m457 -125 c0 -8 -4 -12 -9 -9 -5 3 -6 10 -3 15 9 13 12 11 12
-6z m-1477 -9 c0 -3 -4 -8 -10 -11 -5 -3 -10 -1 -10 4 0 6 5 11 10 11 6 0 10
-2 10 -4z m-22 -50 c-7 -8 -15 -12 -17 -11 -5 6 10 25 20 25 5 0 4 -6 -3 -14z
m1766 -52 c5 -14 4 -15 -9 -4 -17 14 -19 20 -6 20 5 0 12 -7 15 -16z m-1791 0
c7 -8 -14 -54 -25 -54 -5 0 -1 11 7 24 13 19 13 25 3 29 -7 3 -8 6 -2 6 6 1
13 -2 17 -5z m-18 -74 c3 -6 -1 -7 -9 -4 -18 7 -21 14 -7 14 6 0 13 -4 16 -10z
m-3256 -13 c-2 -1 -13 -9 -24 -17 -19 -14 -19 -14 -6 3 7 9 18 17 24 17 6 0 8
-1 6 -3z m3216 -75 c-3 -3 -11 0 -18 7 -9 10 -8 11 6 5 10 -3 15 -9 12 -12z
m-35 -95 c0 -2 -10 -12 -22 -23 l-23 -19 19 23 c18 21 26 27 26 19z m-55 -57
c3 -6 -1 -7 -9 -4 -18 7 -21 14 -7 14 6 0 13 -4 16 -10z m-1140 -70 c3 -6 -1
-7 -9 -4 -18 7 -21 14 -7 14 6 0 13 -4 16 -10z m1060 0 c3 -6 -1 -7 -9 -4 -18
7 -21 14 -7 14 6 0 13 -4 16 -10z m-1021 -18 c3 -5 -1 -9 -9 -9 -8 0 -15 4
-15 9 0 4 4 8 9 8 6 0 12 -4 15 -8z m994 -3 c-2 -6 -8 -11 -13 -11 -6 0 -15
-4 -22 -9 -7 -7 -14 -6 -19 2 -4 7 -3 9 3 6 6 -4 16 0 23 8 14 17 33 20 28 4z
m-931 -25 c-3 -3 -12 -4 -19 -1 -8 3 -5 6 6 6 11 1 17 -2 13 -5z m47 -9 c18
-13 18 -14 -2 -12 -11 0 -19 4 -16 8 2 4 -2 10 -8 12 -7 3 -8 6 -3 6 6 0 18
-6 29 -14z m176 -10 c8 -7 22 -15 30 -18 12 -4 12 -6 -2 -6 -9 -1 -24 6 -33
16 -14 14 -18 14 -26 2 -7 -12 -9 -12 -9 0 0 11 -3 11 -15 1 -9 -8 -15 -8 -15
-2 0 21 47 26 70 7z m650 7 c0 -4 -10 -9 -22 -9 -18 -2 -20 0 -8 7 18 12 30
13 30 2z m-50 -24 c10 -21 10 -21 -3 -6 -10 13 -16 15 -25 6 -9 -9 -12 -9 -12
-1 0 9 6 15 27 22 1 1 7 -9 13 -21z m-723 6 c-3 -3 -12 -4 -19 -1 -8 3 -5 6 6
6 11 1 17 -2 13 -5z m673 -17 c0 -5 -9 -5 -20 -2 -13 4 -20 2 -20 -6 0 -7 -3
-10 -6 -6 -3 3 -3 10 0 16 8 12 46 10 46 -2z m-67 -9 c-2 -5 -10 -8 -18 -8 -8
0 -16 3 -18 8 -3 4 5 7 18 7 13 0 21 -3 18 -7z m-339 -6 c2 -4 -4 -8 -14 -8
-10 0 -16 4 -14 8 3 4 9 8 14 8 5 0 11 -4 14 -8z m266 -4 c0 -4 -4 -8 -9 -8
-6 0 -12 4 -15 8 -3 5 1 9 9 9 8 0 15 -4 15 -9z m-160 -4 c0 -8 -19 -13 -24
-6 -3 5 1 9 9 9 8 0 15 -2 15 -3z m100 -4 c0 -5 -2 -10 -4 -10 -3 0 -8 5 -11
10 -3 6 -1 10 4 10 6 0 11 -4 11 -10z m-2460 -432 c0 -11 -12 -10 -30 2 -12 7
-10 9 8 7 12 0 22 -5 22 -9z m4613 -2143 c-3 -9 -8 -14 -10 -11 -3 3 -2 9 2
15 9 16 15 13 8 -4z m1337 -300 c0 -7 -30 -13 -34 -7 -3 4 4 9 15 9 10 1 19 0
19 -2z m-90 -119 c0 -3 -4 -8 -10 -11 -5 -3 -10 -1 -10 4 0 6 5 11 10 11 6 0
10 -2 10 -4z m-4697 -151 c-3 -9 -8 -14 -10 -11 -3 3 -2 9 2 15 9 16 15 13 8
-4z m-309 -127 c-9 -14 -23 2 -17 18 4 12 8 13 14 3 4 -7 5 -17 3 -21z m1 -48
c3 -5 1 -10 -4 -10 -6 0 -11 5 -11 10 0 6 2 10 4 10 3 0 8 -4 11 -10z m5 -41
c0 -5 -4 -9 -8 -9 -5 0 -9 7 -9 15 0 8 4 12 9 9 4 -3 8 -9 8 -15z m55 -59 c8
-13 -5 -13 -25 0 -13 8 -13 10 2 10 9 0 20 -4 23 -10z m65 0 c0 -5 -10 -10
-22 -10 -19 0 -20 2 -8 10 19 13 30 13 30 0z m4425 -139 c3 -5 2 -12 -3 -15
-5 -3 -9 1 -9 9 0 17 3 19 12 6z m-2995 -361 c-8 -5 -19 -10 -25 -10 -5 0 -3
5 5 10 8 5 20 10 25 10 6 0 3 -5 -5 -10z m-151 -62 c-9 -16 -14 -19 -17 -9 -2
7 2 17 9 22 20 13 21 11 8 -13z m-89 -33 c-7 -9 -15 -13 -19 -10 -3 3 1 10 9
15 21 14 24 12 10 -5z m-93 -38 c0 -7 -9 -14 -20 -14 -19 -2 -19 -2 -1 12 11
8 19 15 20 15 0 0 1 -6 1 -13z m-637 -7 c18 -11 19 -114 1 -148 -10 -19 -15
-20 -36 -10 -20 9 -28 9 -38 -2 -10 -10 -9 -11 2 -5 9 5 12 4 7 -3 -8 -13 -36
-5 -36 12 0 7 -4 6 -9 -2 -4 -8 -12 -14 -17 -14 -23 -1 -34 -12 -35 -37 -2
-23 -2 -24 -6 -3 -2 12 -9 22 -14 22 -6 0 -8 -4 -5 -8 2 -4 -4 -9 -15 -9 -10
-1 -19 3 -19 8 0 6 4 8 9 4 6 -3 19 15 30 39 28 63 99 154 124 159 37 7 42 7
57 -3z m541 -17 c-6 -10 -11 -13 -11 -8 0 6 -4 4 -9 -4 -5 -8 -11 -9 -15 -3
-3 6 3 13 14 17 11 3 20 11 20 17 0 6 3 9 6 5 3 -3 1 -14 -5 -24z m-121 -33
c0 -5 -5 -10 -11 -10 -5 0 -7 5 -4 10 3 6 8 10 11 10 2 0 4 -4 4 -10z m-172
-49 c11 -6 10 -10 -4 -15 -9 -3 -19 -4 -22 -1 -3 3 1 5 9 5 11 0 11 2 -1 10
-8 5 -10 10 -5 10 6 0 16 -4 23 -9z m-112 -26 c-1 -8 -6 -18 -11 -22 -4 -4 -5
-3 -1 4 4 8 -2 11 -21 10 -16 -1 -28 -8 -28 -14 0 -6 -4 -15 -9 -20 -5 -4 -6
-3 -2 4 3 6 2 14 -4 18 -5 3 -10 1 -10 -5 0 -6 -5 -8 -11 -4 -16 9 18 28 54
30 15 1 30 4 34 8 10 9 11 7 9 -9z m39 -5 c3 -5 1 -10 -4 -10 -6 0 -11 5 -11
10 0 6 2 10 4 10 3 0 8 -4 11 -10z m-278 -58 c-9 -2 -15 -7 -13 -11 3 -4 -1
-8 -9 -8 -8 0 -15 4 -15 9 0 4 5 8 11 8 5 0 8 4 5 9 -4 5 4 6 16 3 19 -5 20
-7 5 -10z m-162 -32 c3 -5 1 -10 -4 -10 -6 0 -11 5 -11 10 0 6 2 10 4 10 3 0
8 -4 11 -10z m2400 -680 c3 -5 1 -10 -4 -10 -6 0 -11 5 -11 10 0 6 2 10 4 10
3 0 8 -4 11 -10z m-26 -54 c0 -7 -2 -6 -6 2 -2 6 -8 10 -12 8 -4 -3 -8 1 -8 9
0 11 4 12 14 4 7 -6 13 -17 12 -23z m-169 -70 c0 -3 -4 -8 -10 -11 -5 -3 -10
-1 -10 4 0 6 5 11 10 11 6 0 10 -2 10 -4z m-152 -71 c-3 -3 -9 2 -12 12 -6 14
-5 15 5 6 7 -7 10 -15 7 -18z m-495 -198 c-5 -8 -8 -7 -11 1 -2 7 -9 9 -14 6
-7 -4 -8 -2 -4 4 4 6 13 9 21 6 8 -4 12 -11 8 -17z m-158 -26 c-9 -8 -36 -10
-30 -2 2 4 11 8 20 8 8 0 13 -3 10 -6z m85 -2 c0 -4 -7 -10 -16 -13 -10 -4
-13 -2 -8 6 5 8 2 9 -10 5 -9 -4 -15 -3 -11 2 6 11 45 10 45 0z m-400 -95 c0
-8 -19 -13 -24 -6 -3 5 1 9 9 9 8 0 15 -2 15 -3z m-586 -150 c3 -8 2 -12 -4
-9 -6 3 -10 10 -10 16 0 14 7 11 14 -7z m-127 -8 c0 -8 -6 -12 -15 -9 -11 5
-11 7 0 14 7 5 13 9 14 9 0 0 1 -6 1 -14z m-847 -50 c0 -3 -4 -8 -10 -11 -5
-3 -10 -1 -10 4 0 6 5 11 10 11 6 0 10 -2 10 -4z m626 -17 c9 -15 -23 -10 -35
5 -10 12 -8 13 9 9 11 -3 23 -9 26 -14z m-660 -5 c-4 -11 -2 -15 8 -11 7 3 18
1 24 -5 6 -6 12 -6 16 1 4 6 1 11 -6 11 -8 0 -6 5 5 11 10 6 21 8 24 5 4 -3 1
-6 -6 -6 -7 0 -10 -4 -7 -9 3 -4 -4 -17 -16 -27 -15 -14 -22 -16 -25 -6 -3 6
-16 12 -29 12 -23 0 -23 1 -6 19 21 24 26 25 18 5z m554 5 c0 6 8 11 18 11 14
-1 13 -4 -8 -21 -22 -19 -25 -19 -28 -5 -2 9 -8 13 -14 10 -7 -4 -8 -2 -4 5 6
9 11 9 22 0 10 -8 14 -8 14 0z m-440 -41 c0 -12 -6 -9 -26 13 -19 22 -19 22 4
8 12 -8 22 -17 22 -21z"/>
<path d="M19310 32280 c0 -5 5 -10 11 -10 5 0 7 5 4 10 -3 6 -8 10 -11 10 -2
0 -4 -4 -4 -10z"/>
<path d="M18025 31729 c-4 -5 -10 -7 -15 -4 -5 3 -12 0 -15 -6 -4 -5 -14 -8
-22 -5 -8 3 -12 2 -9 -2 7 -12 -63 -44 -76 -36 -7 4 -8 2 -4 -5 4 -6 0 -14 -8
-17 -9 -3 -16 -13 -16 -22 0 -13 2 -13 18 1 10 10 23 17 28 17 12 0 -38 -34
-53 -36 -7 -1 -11 2 -8 6 3 5 1 12 -5 15 -6 4 -10 3 -9 -2 4 -23 -2 -35 -17
-29 -8 3 -12 2 -9 -4 3 -6 2 -10 -2 -10 -5 0 -9 -10 -10 -22 -1 -12 -10 -28
-19 -37 -17 -15 -17 -15 -4 4 14 20 14 20 -7 1 -19 -16 -23 -36 -7 -36 3 0 2
4 -1 10 -3 6 1 7 10 4 9 -4 15 -7 13 -8 -2 -1 -12 -8 -22 -16 -11 -8 -17 -10
-13 -4 3 6 0 11 -7 11 -8 0 -11 -8 -8 -19 6 -24 -15 -48 -38 -43 -10 2 -25 -4
-32 -13 -12 -16 -11 -16 6 -2 18 14 18 14 6 -7 -8 -12 -16 -21 -19 -20 -9 2
-51 -36 -51 -46 0 -4 4 -6 9 -2 5 3 13 0 17 -6 4 -7 3 -9 -4 -5 -6 3 -13 2
-17 -4 -3 -5 -11 -10 -16 -10 -6 0 -7 5 -3 12 4 7 3 8 -5 4 -6 -4 -9 -11 -6
-16 3 -5 -7 -20 -21 -33 -17 -16 -25 -31 -21 -42 4 -9 3 -14 -2 -10 -14 8 -42
-6 -35 -17 3 -5 -4 -16 -16 -25 -12 -8 -19 -21 -16 -29 3 -8 0 -13 -6 -11 -5
1 -19 -14 -30 -33 -11 -19 -25 -38 -32 -42 -6 -4 -7 -8 -3 -8 5 0 1 -7 -7 -16
-9 -8 -14 -20 -11 -25 4 -5 -1 -9 -10 -9 -9 0 -13 -4 -10 -10 3 -5 1 -10 -5
-10 -6 0 -9 -4 -5 -9 3 -5 -2 -17 -11 -25 -8 -9 -12 -16 -7 -16 4 0 0 -5 -9
-11 -10 -5 -18 -15 -18 -20 0 -11 -60 -92 -73 -97 -4 -2 -5 -8 -1 -13 3 -5 -5
-19 -18 -30 -13 -11 -16 -18 -8 -14 8 4 5 -3 -8 -14 -13 -11 -23 -22 -22 -25
2 -27 -4 -40 -30 -69 -30 -35 -39 -54 -19 -42 6 4 5 -2 -3 -14 -7 -12 -16 -21
-19 -21 -7 0 -22 -40 -20 -52 1 -5 -2 -7 -7 -7 -16 3 -32 -1 -31 -8 4 -22 -2
-33 -13 -27 -7 5 -9 2 -6 -7 3 -8 -3 -32 -13 -54 -10 -21 -19 -45 -19 -52 0
-7 -5 -13 -11 -13 -5 0 -7 -4 -4 -10 3 -6 -4 -10 -17 -10 -13 0 -18 -3 -12 -8
14 -9 10 -42 -6 -52 -7 -4 -11 -10 -11 -14 3 -23 0 -36 -9 -31 -5 3 -10 1 -10
-5 0 -6 -5 -8 -12 -4 -7 4 -8 3 -4 -5 4 -6 11 -9 15 -7 4 3 8 -1 8 -9 0 -8 -4
-12 -8 -10 -4 3 -10 -6 -13 -20 -4 -14 -11 -25 -17 -25 -6 0 -7 -5 -4 -10 4
-6 1 -17 -5 -25 -7 -8 -10 -15 -6 -15 4 0 -1 -11 -10 -25 -9 -14 -21 -22 -27
-18 -6 3 -7 1 -3 -6 4 -6 12 -9 17 -6 5 3 6 -1 3 -9 -3 -9 -10 -14 -14 -11 -5
3 -7 -7 -6 -22 2 -20 -4 -35 -23 -51 -18 -16 -20 -21 -7 -16 16 6 15 2 -7 -33
-19 -30 -23 -43 -14 -52 8 -8 8 -11 -2 -11 -7 0 -11 -6 -8 -15 4 -8 1 -17 -5
-21 -7 -5 -8 -2 -3 7 8 12 6 12 -8 0 -18 -15 -23 -26 -7 -16 6 3 10 0 10 -9 0
-8 -6 -16 -12 -19 -10 -3 -9 -8 2 -22 13 -17 13 -18 0 -10 -21 13 -41 15 -34
4 3 -5 -2 -12 -10 -15 -14 -5 -14 -8 0 -21 12 -12 12 -18 2 -31 -7 -8 -14 -23
-14 -34 -1 -10 -2 -19 -3 -20 -5 -6 -14 -54 -15 -75 -1 -13 -5 -23 -9 -23 -5
0 -7 -10 -6 -22 1 -13 -1 -30 -4 -38 -12 -31 -23 -106 -22 -152 1 -37 -3 -48
-15 -48 -11 0 -12 -2 -3 -8 15 -9 26 -79 14 -86 -4 -3 -6 -20 -4 -38 4 -43 6
-82 3 -88 -9 -25 -8 -50 1 -44 7 4 7 -1 -1 -16 -8 -16 -9 -30 -1 -52 6 -17 11
-51 11 -74 0 -24 3 -44 8 -44 4 0 8 -12 8 -27 5 -77 10 -113 17 -113 5 0 5 -4
2 -10 -3 -5 -1 -10 4 -10 13 0 10 -22 -4 -32 -5 -4 1 -8 15 -8 20 0 22 -2 10
-10 -13 -9 -13 -12 0 -23 19 -16 24 -37 8 -37 -9 0 -8 -4 2 -10 20 -13 39 -12
20 1 -13 9 -13 10 0 6 8 -2 14 -10 12 -16 -1 -6 3 -11 10 -11 9 0 9 -3 0 -12
-7 -7 -12 -17 -12 -23 0 -6 3 -6 8 1 5 9 11 8 20 -2 8 -9 9 -14 2 -14 -17 0
-8 -43 13 -62 10 -9 19 -25 20 -36 0 -12 5 -18 9 -16 7 5 12 -10 9 -28 -1 -8
16 -12 34 -8 5 1 7 -2 2 -6 -4 -4 1 -16 10 -27 10 -11 13 -17 7 -14 -7 4 -14
-2 -17 -14 -4 -16 -3 -18 9 -8 11 9 14 8 14 -5 0 -9 5 -16 11 -16 7 0 9 -9 6
-21 -4 -15 0 -23 14 -26 14 -4 18 -12 15 -29 -3 -14 -1 -22 5 -19 5 4 6 11 3
17 -4 7 -2 8 4 4 6 -4 8 -14 5 -23 -4 -10 -2 -14 4 -10 6 4 13 -2 16 -13 3
-11 11 -19 19 -17 7 2 10 2 6 0 -5 -3 -8 -11 -8 -19 0 -9 4 -13 9 -9 11 6 37
-34 32 -50 -1 -5 1 -7 4 -3 8 7 56 -40 82 -79 9 -13 20 -20 26 -16 5 3 7 2 4
-4 -7 -10 36 -53 53 -53 6 0 10 -7 10 -15 0 -8 4 -15 9 -15 4 0 23 -14 40 -31
18 -17 39 -28 47 -25 7 3 13 1 11 -5 -1 -6 13 -19 30 -28 18 -10 29 -22 25
-26 -4 -5 -2 -5 5 -1 6 3 15 1 18 -5 4 -5 13 -8 21 -5 8 3 14 1 14 -5 0 -15
26 -39 43 -39 8 0 22 -9 32 -20 10 -11 24 -20 32 -20 7 0 13 -4 13 -8 0 -5 12
-15 28 -23 15 -8 33 -20 41 -27 7 -7 26 -16 42 -19 16 -3 27 -8 25 -12 -3 -4
9 -14 25 -24 18 -10 27 -12 23 -4 -4 6 3 2 15 -11 12 -12 26 -20 32 -17 5 4 9
1 9 -6 0 -8 4 -8 15 1 13 11 14 10 9 -5 -5 -13 -4 -16 4 -11 7 4 12 2 12 -6 0
-9 3 -9 10 2 5 8 10 10 10 5 0 -6 9 -16 21 -23 12 -8 18 -9 14 -3 -3 6 1 11 9
11 9 0 16 -7 16 -17 0 -9 3 -14 6 -10 3 3 19 1 36 -5 24 -8 32 -8 39 3 8 11 9
9 7 -6 -2 -14 2 -20 15 -19 9 1 17 -2 17 -8 0 -5 5 -6 10 -3 6 3 10 2 10 -4 0
-5 9 -8 20 -6 11 2 20 -1 20 -7 0 -6 3 -9 6 -5 4 3 13 0 20 -8 8 -7 23 -11 34
-8 12 3 20 2 19 -3 -5 -26 1 -36 15 -25 11 9 17 8 29 -3 8 -8 17 -12 21 -9 3
4 6 1 6 -7 0 -10 4 -10 17 1 11 9 14 10 9 2 -5 -9 5 -15 34 -19 27 -5 40 -12
40 -23 0 -14 2 -14 10 -1 6 10 10 11 10 3 0 -7 8 -13 18 -13 10 0 24 -6 30
-12 10 -10 15 -10 23 2 9 12 10 12 5 -4 -5 -15 -2 -17 20 -12 15 4 23 3 20 -3
-7 -11 12 -19 42 -16 16 1 21 -2 17 -13 -4 -11 -2 -12 7 -4 13 10 18 12 39 12
5 0 7 5 4 10 -3 6 -11 10 -16 10 -6 0 -7 -6 -3 -12 5 -9 2 -9 -9 1 -24 19 -22
20 21 15 23 -3 32 -1 24 5 -10 6 -11 13 -4 27 6 11 20 48 32 84 12 36 30 83
40 105 10 22 24 58 30 80 7 22 19 56 27 75 21 48 27 64 58 150 36 103 55 152
66 172 5 10 9 26 9 36 0 10 4 22 8 27 5 6 17 33 26 60 10 28 24 64 32 82 8 17
14 38 14 46 0 9 5 19 11 22 6 4 9 24 8 46 -2 21 1 42 6 46 4 4 5 3 1 -4 -3 -6
-1 -15 6 -19 7 -4 10 -4 6 1 -4 4 -1 20 8 36 13 27 11 34 -9 30 -5 -1 -6 3 -2
9 3 6 10 8 15 5 4 -3 13 8 18 25 8 21 8 32 0 36 -7 4 -8 2 -4 -4 4 -7 2 -12
-3 -12 -6 0 -11 5 -11 11 0 6 -9 9 -20 6 -15 -4 -20 0 -20 16 0 18 -2 19 -10
7 -9 -13 -10 -13 -11 0 -1 8 -1 18 0 22 0 3 -7 5 -17 3 -20 -3 -44 14 -36 26
3 5 -1 6 -9 3 -8 -3 -21 2 -30 10 -9 9 -23 16 -32 16 -9 0 -13 5 -10 10 4 6
-5 10 -20 10 -14 0 -24 4 -21 9 7 11 -89 62 -99 53 -5 -4 -5 -1 -1 6 4 7 1 12
-9 12 -10 0 -13 5 -9 12 4 7 3 8 -4 4 -12 -7 -76 47 -66 57 3 3 -4 8 -16 12
-11 4 -32 17 -45 31 -13 13 -31 24 -40 24 -9 0 -14 3 -12 8 2 4 -10 21 -26 37
-16 17 -26 24 -22 16 5 -9 3 -12 -4 -10 -7 3 -13 9 -14 14 -2 20 -21 34 -29
21 -5 -7 -8 -5 -8 6 0 9 -10 20 -21 23 -17 6 -19 9 -8 16 11 7 10 9 -6 9 -10
0 -38 20 -61 44 -23 25 -45 42 -48 38 -4 -3 -4 2 0 12 5 14 4 17 -4 12 -7 -4
-13 -2 -13 3 -1 6 -2 15 -3 20 0 5 -5 13 -10 18 -6 5 -6 2 -1 -7 4 -8 -1 -6
-12 5 -11 11 -19 23 -16 28 2 4 0 7 -5 7 -5 0 -17 15 -27 34 -11 19 -23 33
-27 30 -4 -3 -8 3 -8 13 0 24 -34 75 -44 66 -4 -4 -4 0 -1 9 3 8 0 22 -8 29
-8 8 -22 31 -32 52 -9 20 -21 35 -25 32 -5 -3 -6 4 -3 15 3 11 0 20 -6 20 -6
0 -11 10 -11 23 0 12 -9 29 -20 37 -15 11 -17 17 -7 29 10 12 9 13 -2 6 -11
-6 -13 -3 -9 13 3 12 3 21 -1 20 -19 -2 -24 3 -11 12 13 8 13 10 -2 10 -9 0
-20 5 -24 12 -4 6 -3 8 4 4 6 -4 10 1 9 13 -1 11 -3 18 -5 16 -2 -2 -10 2 -17
8 -9 9 -10 17 -3 31 7 12 7 16 0 12 -5 -3 -12 7 -15 22 -3 15 -1 30 5 33 11 7
10 19 -4 36 -6 7 -7 25 -4 40 5 21 4 24 -4 13 -7 -11 -9 -5 -8 26 1 22 -2 46
-6 52 -4 6 -2 20 4 31 7 14 7 22 0 26 -8 5 -7 11 1 21 7 9 8 14 3 13 -20 -3
-22 2 -14 31 5 17 5 30 0 30 -6 0 -11 82 -10 199 0 13 -6 31 -12 40 -12 14
-11 14 5 2 14 -11 20 -12 30 -2 9 10 8 11 -4 6 -10 -4 -19 0 -23 11 -4 9 -5
18 -4 19 2 1 12 8 23 14 19 12 19 12 -2 8 -15 -4 -23 0 -23 9 0 8 5 14 10 14
6 0 10 5 10 11 0 5 -4 8 -9 5 -4 -3 -6 6 -3 20 3 17 9 23 19 20 9 -4 11 -2 6
7 -4 6 -8 33 -8 58 0 37 3 46 15 42 11 -3 10 -1 -3 10 -12 10 -14 16 -6 19 7
2 14 24 15 49 5 69 5 70 28 63 20 -6 20 -6 4 12 -17 19 -16 69 2 104 4 8 8 32
8 53 2 45 9 60 25 51 9 -5 9 -4 0 6 -14 15 -6 43 10 33 6 -4 7 -1 2 7 -16 25
-11 72 8 82 13 7 15 13 8 22 -7 9 -6 18 4 33 8 11 12 23 9 26 -8 8 19 127 29
127 4 0 5 5 1 11 -4 7 4 20 17 31 20 15 21 17 4 11 -18 -6 -18 -5 -7 10 8 9
11 21 7 27 -3 5 1 10 9 10 9 0 16 5 16 11 0 5 -4 8 -9 4 -6 -3 -9 3 -8 14 1
13 5 17 12 11 6 -5 10 4 10 28 0 27 4 36 15 34 10 -1 9 3 -5 14 -20 16 -20 16
3 11 12 -3 20 -1 17 3 -3 5 0 10 7 12 14 5 2 28 -15 28 -8 0 -8 -3 1 -9 11 -7
11 -9 -1 -14 -12 -4 -15 0 -12 15 3 12 10 26 16 32 9 8 10 8 5 -1 -4 -7 -2
-13 3 -13 17 0 13 18 -6 30 -16 10 -16 11 3 7 25 -5 29 22 6 39 -14 10 -13 13
6 23 18 9 21 9 16 -3 -3 -8 -1 -16 4 -20 14 -8 7 30 -9 50 -9 11 -9 15 -1 10
7 -4 12 -1 12 8 0 9 5 16 10 16 12 0 9 -22 -5 -33 -6 -5 -4 -7 5 -4 8 2 15 10
15 18 1 8 7 13 13 11 10 -2 10 3 2 18 -12 22 -21 27 -16 8 1 -7 1 -10 -1 -5
-3 4 -10 4 -16 0 -7 -4 -6 1 2 10 7 9 10 17 6 17 -4 0 -2 6 4 14 15 18 4 46
-19 46 -9 0 -25 10 -36 22 -15 19 -16 20 -1 9 9 -7 17 -9 17 -3 0 14 -28 23
-35 11z m5 -23 c0 -3 -4 -8 -10 -11 -5 -3 -10 -1 -10 4 0 6 5 11 10 11 6 0 10
-2 10 -4z m-35 -16 c-3 -5 -12 -10 -18 -10 -7 0 -6 4 3 10 19 12 23 12 15 0z
m-60 -20 c-3 -5 -12 -10 -18 -10 -7 0 -6 4 3 10 19 12 23 12 15 0z m-100 -90
c3 -6 -1 -7 -9 -4 -18 7 -21 14 -7 14 6 0 13 -4 16 -10z m-1105 -1854 c0 -3
-4 -8 -10 -11 -5 -3 -10 -1 -10 4 0 6 5 11 10 11 6 0 10 -2 10 -4z m44 -1292
c3 -8 2 -12 -4 -9 -6 3 -10 10 -10 16 0 14 7 11 14 -7z m2180 -95 c-3 -5 -10
-7 -15 -3 -5 3 -7 10 -3 15 3 5 10 7 15 3 5 -3 7 -10 3 -15z m-14 -53 c0 -2
-8 -10 -17 -17 -16 -13 -17 -12 -4 4 13 16 21 21 21 13z"/>
<path d="M18074 31722 c3 -5 0 -13 -6 -15 -9 -4 -10 -6 -1 -6 17 -1 25 16 12
25 -7 4 -9 3 -5 -4z"/>
<path d="M18110 31680 c0 -5 5 -10 11 -10 5 0 7 5 4 10 -3 6 -8 10 -11 10 -2
0 -4 -4 -4 -10z"/>
<path d="M18115 31647 c-14 -11 -15 -16 -5 -22 11 -7 29 9 30 28 0 10 -3 9
-25 -6z"/>
<path d="M17706 31453 c-6 -14 -5 -15 5 -6 7 7 10 15 7 18 -3 3 -9 -2 -12 -12z"/>
<path d="M17906 30918 c3 -5 10 -6 15 -3 13 9 11 12 -6 12 -8 0 -12 -4 -9 -9z"/>
<path d="M16875 30191 c-3 -5 -2 -12 3 -15 5 -3 9 1 9 9 0 17 -3 19 -12 6z"/>
<path d="M16784 29969 c-19 -22 -19 -22 4 -8 12 8 22 17 22 21 0 12 -6 9 -26
-13z"/>
<path d="M25090 29681 c0 -6 4 -13 10 -16 6 -3 7 1 4 9 -7 18 -14 21 -14 7z"/>
<path d="M24465 28950 c-3 -5 1 -10 10 -10 9 0 13 5 10 10 -3 6 -8 10 -10 10
-2 0 -7 -4 -10 -10z"/>
<path d="M24275 28759 c-3 -4 2 -6 10 -5 21 3 28 13 10 13 -9 0 -18 -4 -20 -8z"/>
<path d="M24079 28593 c-8 -9 -9 -14 -2 -10 6 4 13 4 16 0 2 -5 2 -3 1 4 -2 6
2 14 9 17 8 3 8 5 1 5 -6 1 -18 -7 -25 -16z"/>
<path d="M16828 28283 c6 -2 9 -10 6 -15 -4 -7 -2 -8 5 -4 13 9 5 26 -12 25
-9 0 -8 -2 1 -6z"/>
<path d="M22545 27610 c-4 -6 3 -10 14 -10 25 0 27 6 6 13 -8 4 -17 2 -20 -3z"/>
<path d="M22406 27562 c-2 -4 -1 -14 4 -22 7 -11 9 -9 7 8 -1 24 -3 26 -11 14z"/>
<path d="M20775 27070 c-4 -6 1 -7 11 -3 12 4 15 3 10 -5 -5 -8 -2 -10 9 -5
13 5 14 7 3 14 -17 11 -26 11 -33 -1z"/>
<path d="M28928 23230 c-16 -10 -34 -53 -44 -105 -5 -31 21 -92 46 -105 25
-14 68 22 75 63 13 70 12 117 -2 137 -15 21 -47 26 -75 10z"/>
<path d="M30431 14020 c-24 -11 -50 -20 -58 -20 -35 0 -145 -142 -149 -192 -2
-32 -26 -76 -42 -80 -10 -3 -37 -31 -62 -63 -44 -57 -45 -61 -48 -139 -4 -77
-6 -84 -45 -136 -64 -84 -106 -159 -128 -224 -12 -33 -28 -74 -36 -91 -27 -50
-82 -216 -78 -233 9 -45 18 -72 24 -72 15 0 39 -58 45 -110 18 -138 47 -222
129 -364 79 -137 186 -289 236 -334 58 -52 117 -65 146 -32 7 8 23 62 34 120
12 58 25 123 31 145 5 22 11 74 14 115 3 62 13 97 59 205 60 144 71 174 87
257 6 31 31 95 55 143 45 88 50 110 70 309 3 32 7 62 9 65 2 3 7 70 10 149 8
176 20 272 42 335 37 108 -3 193 -112 242 -68 30 -172 33 -233 5z"/>
<path d="M24424 10241 c-21 -16 -61 -50 -89 -76 -27 -25 -59 -48 -71 -51 -22
-6 -117 18 -172 42 -84 38 -189 43 -278 14 -44 -15 -77 -20 -102 -16 -141 23
-154 21 -197 -21 -15 -16 -36 -47 -46 -69 -16 -38 -60 -77 -147 -129 -9 -5
-31 -20 -49 -32 -17 -13 -36 -23 -42 -23 -30 0 -63 -28 -86 -74 -31 -63 -37
-105 -22 -159 13 -46 13 -59 3 -157 -19 -192 67 -317 244 -354 154 -33 176
-38 235 -61 82 -31 140 -38 174 -20 72 37 191 122 236 169 28 29 70 63 95 75
64 32 186 126 207 159 10 15 21 29 25 32 11 9 36 85 43 132 9 59 33 108 100
208 l57 85 -6 77 c-6 74 -5 80 25 133 35 62 32 90 -13 118 -48 31 -81 30 -124
-2z"/>
</g>
</svg>
